<svg width="41" height="41" viewBox="0 0 41 41" fill="none" xmlns="http://www.w3.org/2000/svg">
<path d="M7.1984 0.500523C6.36497 0.484346 5.56298 0.804671 4.96595 1.40926L2.038 4.33721C-0.000318617 6.38417 -0.0348663 10.1154 1.95163 14.8657C3.85175 19.426 7.41881 24.444 11.9705 29.0043C16.5308 33.5646 21.5489 37.123 26.1092 39.0317C28.4412 40.0077 30.5399 40.5 32.3019 40.5C34.1242 40.5 35.6011 39.9818 36.6375 38.9453L39.5655 36.0174C40.2564 35.3178 40.5761 34.3764 40.4465 33.4177C40.317 32.459 39.7641 31.63 38.9263 31.1463L29.0544 25.4631C27.8452 24.7635 26.3164 24.9707 25.3231 25.9554L23.3798 27.8987C22.8616 28.4169 22.0411 28.4602 21.4797 28.0024C19.951 26.7673 18.4396 25.4112 16.9973 23.9689C15.5549 22.5265 14.1988 21.0152 12.9637 19.4864C12.506 18.9164 12.5492 18.1045 13.0675 17.5863L15.0108 15.643C15.9954 14.6584 16.2026 13.1209 15.503 11.9117L9.82861 2.04842C9.34495 1.21064 8.51573 0.657911 7.55703 0.528357C7.4372 0.512163 7.31746 0.502834 7.1984 0.500523ZM7.15117 1.79792C7.2289 1.79792 7.30653 1.80649 7.3929 1.81513C7.9543 1.89286 8.4294 2.21253 8.71442 2.69619L14.3888 12.5595C14.7948 13.2591 14.6739 14.1487 14.1039 14.7273L13.6115 15.2197L6.08875 2.152C6.39968 1.92744 6.7625 1.79792 7.15117 1.79792ZM5.13009 3.07625L12.6614 16.1698L12.1518 16.6794C11.1672 17.664 11.0809 19.2273 11.9533 20.3069C13.2143 21.8789 14.6047 23.4162 16.0816 24.8931C17.5585 26.37 19.1047 27.7605 20.668 29.0215C21.7562 29.8938 23.3109 29.8075 24.2955 28.8229L24.7531 28.3651L37.8813 35.862L35.722 38.0213C34.0983 39.645 30.7817 39.5758 26.6101 37.8311C22.1966 35.9828 17.3253 32.5282 12.886 28.0888C8.44657 23.6494 4.98326 18.7695 3.14359 14.3647C1.39893 10.193 1.32974 6.87644 2.95348 5.25269L5.13009 3.07625ZM27.5684 26.3479C27.8586 26.3556 28.1496 26.4337 28.4152 26.5859L38.2785 32.2691C38.7622 32.5541 39.0905 33.029 39.1596 33.5904C39.2201 34.0568 39.0991 34.5232 38.8227 34.8946L25.7118 27.415L26.2474 26.8796C26.6037 26.5179 27.0848 26.3351 27.5684 26.3479Z" fill="black"/>
</svg>
