<svg width="141" height="141" viewBox="0 0 141 141" fill="none" xmlns="http://www.w3.org/2000/svg">
<path d="M48.6435 23.1162C47.53 23.1283 46.3841 23.3458 45.1873 23.8354C41.0963 25.6633 38.4853 29.145 35.9611 32.5396C34.3943 34.6287 32.8279 36.5443 31.087 38.4592C29.9555 39.7649 29.0854 41.1572 28.8242 42.8981C28.4761 45.2482 29.2595 46.9891 30.5651 48.5558C28.4761 49.6874 26.2986 50.7319 23.9485 50.7319C21.7724 50.6449 19.8578 49.6004 17.7688 49.4263C14.2871 49.2522 11.6755 51.6897 9.58644 54.1269C6.88812 57.2605 4.19014 60.5681 2.10111 64.1368C0.534342 66.9222 -0.858002 70.5787 1.14398 73.5381C2.10145 74.9308 3.49379 75.9753 4.27718 77.4551C5.23465 79.2829 5.49578 81.2849 6.45325 83.1128C7.93297 85.9852 10.8054 87.3772 13.8519 88.0736C16.202 88.5958 19.2482 89.3799 21.7724 88.7706C20.3797 91.2078 19.7711 94.2533 19.423 96.8646C19.0748 99.824 19.3366 101.913 21.8608 103.741C25.2555 106.091 27.5176 108.094 28.6491 112.272C29.4325 114.97 30.8262 116.537 33.6116 117.146C37.0933 117.93 40.8348 118.017 44.4035 118.365C47.5371 118.713 50.5846 118.713 53.2829 116.711C55.8072 114.796 57.2859 111.924 58.7656 109.226C58.9397 108.877 59.2018 108.442 59.3759 108.093C59.3759 109.921 59.6367 111.661 61.2035 112.619C64.5111 114.621 69.3855 112.62 72.9542 112.881C77.2193 113.229 81.3974 114.361 85.5754 112.794C87.9256 111.924 89.8402 110.27 90.8847 108.007C92.7996 114.1 102.114 116.624 107.163 118.539C107.772 118.8 108.381 118.104 108.207 117.495C107.684 115.754 107.162 114.013 106.552 112.359C112.384 112.359 118.391 114.361 123.004 117.93C123.439 118.278 124.049 118.191 124.223 117.581C125.267 113.926 125.528 109.834 124.831 106.091C124.483 104.263 123.786 102.436 122.742 100.957C121.349 98.9546 117.52 95.5586 121.698 93.9048C122.22 93.7307 122.395 93.1227 122.047 92.6875C120.741 91.2078 119.26 90.0756 117.519 89.3792C117.781 89.2922 118.042 89.1178 118.303 89.0307C120.392 87.9862 123.352 86.4201 124.831 84.5052C125.005 84.244 125.006 83.8959 125.18 83.6348C125.789 82.3291 126.224 81.8069 127.356 81.0235C128.4 80.3271 129.359 79.5441 130.229 78.7607C134.407 75.192 138.41 70.3169 140.151 65.0073C140.151 64.7461 139.803 64.3102 139.455 64.3102C135.016 64.8325 130.576 64.6591 126.137 64.1368C122.916 63.7887 119.696 63.2671 116.562 63.9634C116.649 63.3541 116.389 62.6564 115.867 62.1342C114.126 60.4804 110.47 60.7429 108.12 60.9169C106.988 57.4352 99.5893 61.0897 97.3262 62.5694C96.8039 60.7415 96.8917 59.3502 98.0232 57.4352C98.7196 56.3037 99.0677 55.1711 98.8936 53.7784C98.5455 51.0801 96.6292 48.5569 94.8883 46.5549C92.6252 43.8566 90.101 41.418 87.4897 39.0679C84.9655 36.8918 82.0937 34.8905 78.612 34.9775C77.0452 34.9775 75.7389 35.4131 74.4333 36.1965C72.1702 37.5021 70.3426 38.1114 67.8184 38.3725C67.9054 36.3706 67.4702 34.3689 66.5127 32.6281C64.3367 28.9723 59.2878 27.2311 55.7191 25.3161C53.3853 24.0594 51.093 23.0898 48.6435 23.1162ZM49.1093 24.6718C50.2626 24.6908 51.454 24.9455 52.6726 25.4895C54.5005 26.2729 56.3294 27.4051 58.0703 28.3626C60.0722 29.4942 62.5094 30.452 64.1633 32.1928C67.2968 35.4134 66.5131 40.2871 65.1204 44.117C64.337 46.2931 63.3792 48.3824 62.5958 50.5585C61.8995 52.5605 61.725 54.5625 61.3769 56.6515C61.0287 59.2628 59.4633 61.2648 58.4188 63.6149C57.8965 64.9206 57.5473 66.3126 57.3732 67.7052C57.2862 67.3571 57.1118 67.0092 57.0247 66.7481C56.7636 65.8777 56.4158 64.9206 56.0676 64.0501C56.2417 64.1372 56.4168 64.1372 56.6779 64.0501C56.939 63.9631 57.1131 63.7009 57.1131 63.4398C57.1131 63.2657 57.0247 63.18 57.0247 63.093C57.0247 62.7448 56.6779 62.4827 56.2427 62.4827C56.1557 62.4827 56.1546 62.4823 56.0676 62.5694H55.9809C55.8068 62.4823 55.7198 62.5708 55.5457 62.6578C55.5457 62.5707 55.546 62.5697 55.459 62.4827C55.1979 61.7863 55.0227 61.0897 54.8487 60.3933C55.1098 60.4804 55.4593 60.5684 55.8075 60.5684H55.8942H56.0676C56.5028 60.4814 56.6776 59.8724 56.3294 59.6113C56.2424 59.5243 56.0679 59.4365 55.9809 59.3495C55.6327 59.0013 55.0241 59.0006 54.5018 59.0877C54.2407 58.2173 54.0656 57.3468 53.8915 56.4764C53.9786 56.4764 54.0663 56.5648 54.1533 56.5648C54.4145 56.6518 54.6746 56.5641 54.8487 56.303C55.0227 56.1289 55.0241 55.7804 54.9371 55.5193L54.6753 55.2592C54.6753 55.1721 54.6756 55.0841 54.5886 55.0841C54.3274 54.91 54.0663 54.8226 53.7181 54.7355H53.6314H53.4563C53.3693 54.0392 53.1948 53.3442 53.1078 52.6479C53.3689 52.6479 53.6311 52.3854 53.7181 52.1243C53.7181 52.1243 53.8048 52.1246 53.8048 52.0376C53.9789 51.9505 53.8919 51.6894 53.8048 51.6023C53.6307 51.4283 53.3689 51.2545 53.1078 51.0804C53.0208 51.0804 52.9347 50.9937 52.8477 50.9937L52.5859 48.1206C52.5859 47.9465 52.4115 47.7735 52.2374 47.8605C51.0188 48.2087 50.4972 49.5137 50.3231 51.0804C50.2361 51.1675 50.2361 51.2552 50.3231 51.3422V52.1243C50.3231 52.1243 50.3235 52.0376 50.2364 52.0376C50.0623 51.8635 49.8872 51.7771 49.6261 51.8642C49.452 51.8642 49.2779 51.9505 49.1909 52.0376C48.9298 52.0376 48.6696 52.2116 48.4956 52.4728C48.4085 52.5598 48.4952 52.8213 48.5823 52.8213C48.6693 52.9083 48.7567 52.996 48.9308 53.0831C49.1049 53.1701 49.2786 53.1698 49.4527 53.1698C49.8879 53.1698 50.149 52.909 50.3231 52.6479V52.908C50.149 52.995 50.0616 53.0827 49.9746 53.1698C49.8876 53.3439 49.9757 53.5183 50.1497 53.5183C50.2368 53.5183 50.3228 53.605 50.4098 53.605V53.8651C50.2357 53.9522 50.0616 54.0399 49.9746 54.1269L49.8879 54.2136L49.8012 54.3003L49.7145 54.3887C49.6275 54.6499 49.8009 54.8236 49.8879 54.9106C49.9749 55.0847 50.1487 55.1721 50.4098 55.2592H50.4965C50.4965 55.2592 50.5849 55.2588 50.5849 55.3459C50.759 56.3904 50.9328 57.3478 51.1068 57.9571V58.0438C50.9328 58.0438 50.8454 58.1302 50.7583 58.2173C50.5842 58.2173 50.4105 58.3053 50.2364 58.3924C50.1494 58.4794 50.0627 58.6538 50.1497 58.7409C50.2368 59.089 50.6706 59.2624 50.9317 59.3495C51.0188 59.3495 51.1929 59.4362 51.367 59.4362H51.4554C51.6294 60.0455 51.8032 60.7428 51.9773 61.3521H51.8906C51.8035 61.3521 51.7158 61.3518 51.6288 61.4389C51.3676 61.5259 51.368 61.8737 51.5421 61.9608C51.455 62.483 51.8906 62.7445 52.3258 62.7445C52.4128 63.1797 52.4988 63.5282 52.5859 63.9634C52.4118 63.7893 52.0633 63.7023 51.8022 63.9634C51.8022 63.9634 51.7155 63.9631 51.7155 64.0501C51.8895 64.2242 51.7161 64.2239 51.5421 64.1368L51.0201 62.8312C50.8461 62.483 50.759 62.2222 50.5849 61.8741L50.845 61.6123C51.1062 61.177 50.5849 60.5677 50.1497 60.7418C49.7145 59.8714 49.2793 59.089 48.8441 58.3057C49.1922 58.1316 49.5401 57.8701 49.8012 57.5219C49.9753 57.2608 49.7142 56.913 49.366 57C49.0178 57.0871 48.6686 57.2608 48.3205 57.5219C47.363 56.1292 46.2328 54.7362 44.9271 53.6917C44.7531 53.5176 44.4916 53.6924 44.5786 53.9535C46.0584 56.3907 47.7985 58.7409 49.1042 61.3521L48.8441 61.6123C48.5829 61.7863 48.5829 62.1352 48.8441 62.3093C49.1052 62.4834 49.3663 62.4827 49.7145 62.4827C50.0627 63.179 50.4105 63.9621 50.6716 64.7455C50.5846 64.9195 50.5846 65.1817 50.6716 65.3558C50.6716 65.6169 50.8461 65.7039 51.0201 65.791C51.5424 67.2707 51.9769 68.8371 52.064 70.2298C51.5417 69.6205 50.8461 69.0979 50.1497 68.5757C48.4089 67.3571 46.5806 66.3136 45.0139 64.8339C43.4471 63.4412 42.4029 61.6129 41.4454 59.698C39.8787 56.5645 38.3976 53.4306 35.6993 51.0804C34.3066 49.8618 32.5671 48.9037 31.4355 47.3369C29.5206 44.8127 30.0418 41.7665 32.1308 39.4164C34.9162 36.1958 37.266 32.7137 40.0514 29.4932C42.5321 26.686 45.6493 24.6147 49.1093 24.6718ZM49.1365 31.6505C48.9896 31.675 48.8441 31.8219 48.8441 32.0177C48.9311 32.9752 49.7142 33.6719 50.2364 34.5423C50.7587 35.4998 51.1929 36.6317 51.8022 37.5021C51.8892 37.5891 52.064 37.5895 52.064 37.4154C52.151 36.2838 51.6288 35.1516 51.1935 34.1071C50.7583 33.2367 50.2368 32.0174 49.2793 31.6692C49.2358 31.6475 49.1854 31.6424 49.1365 31.6505ZM53.4342 33.7909C53.3689 33.8018 53.3261 33.8466 53.3696 33.9337C54.5882 37.5895 55.7191 40.9841 56.1543 44.814C56.5025 48.4698 56.3284 52.0372 56.5895 55.606C56.5895 55.7801 56.7646 55.693 56.7646 55.606C57.548 48.9037 57.5483 39.6771 53.6314 33.8453C53.5879 33.8018 53.4995 33.78 53.4342 33.7909ZM35.3525 35.6745C35.3525 35.6745 35.264 35.6742 35.264 35.7612C35.264 37.0669 36.3089 38.3715 36.9182 39.5031C37.7016 40.8087 38.4853 42.1147 39.4428 43.3333C39.5298 43.5074 39.8783 43.334 39.7913 43.1599C39.269 41.6802 38.4853 40.3738 37.7019 38.9811C37.0056 37.8496 36.484 36.3709 35.3525 35.6745ZM78.4488 36.4787C82.2545 36.4013 85.5105 39.5143 88.1 42.0276C91.0595 44.9001 94.2804 47.8598 96.2824 51.5156C96.8046 52.4731 97.3262 53.6043 97.3262 54.6488C97.3262 55.3452 97.0654 55.8674 96.8043 56.3897C94.5412 60.0455 88.6212 61.1777 85.3136 63.6149C85.1395 63.789 85.2276 64.1372 85.4887 64.0501C88.7093 63.1797 92.3651 61.4378 95.0634 59.5229C95.1505 59.4358 95.2365 59.3495 95.3235 59.3495C95.1494 60.0458 95.1494 60.7422 95.3235 61.5256C95.5847 63.1794 96.3694 64.6594 96.7176 66.2262C97.2398 68.7504 96.0205 71.0135 93.8445 72.3192C89.8405 74.7564 84.7047 73.1026 80.4396 72.3192C72.9539 70.9265 65.2081 72.4052 57.9836 74.7554C58.1576 74.4072 58.2433 73.9733 58.3304 73.5381C59.549 72.6677 60.4204 71.361 61.552 70.3165C62.9447 69.0979 64.5104 68.0541 66.1642 67.0966C69.4718 65.1817 72.9546 63.5282 76.3492 61.7874C76.6104 61.7003 76.3482 61.3518 76.1741 61.4389C72.2572 63.0927 68.2546 64.5727 64.5118 66.5747C62.6839 67.5322 59.9849 69.0986 58.5922 71.0135C61.2905 62.9186 66.4267 56.6515 72.3456 50.5585C72.5197 50.3844 72.2579 50.2097 72.0838 50.2967C66.1649 56.0415 60.4201 61.7863 58.157 69.8813L57.8952 68.8375C58.3304 66.5744 59.1148 64.4843 60.2463 62.5694C61.3779 60.5674 62.5098 59.0884 62.7709 56.7382C63.1191 54.3881 63.4662 52.2127 64.3367 50.0366C65.2071 47.7735 66.3383 45.422 67.0346 42.9848C67.3828 41.6791 67.6446 40.3738 67.7317 38.9811C71.3875 40.1997 73.4768 37.6758 76.7844 36.7184C77.3502 36.5661 77.9051 36.4897 78.4488 36.4787ZM77.9694 44.3584C77.9218 44.3516 77.8718 44.357 77.8283 44.3788C77.3931 44.814 76.8715 45.1612 76.3492 45.5094C75.914 45.7705 75.3051 45.8579 74.9569 46.2931C74.8699 46.2931 74.8695 46.5549 75.0436 46.5549C75.6529 46.729 76.2622 46.2924 76.7844 46.0313C77.3937 45.6831 77.8286 45.2482 78.1768 44.6389C78.2421 44.5084 78.1122 44.3788 77.9694 44.3584ZM52.1677 49.2495C52.2438 49.2304 52.3254 49.2311 52.4125 49.2529C52.4995 49.2529 52.4989 49.6874 52.5859 50.2967C52.2377 50.1226 51.8899 49.9485 51.6288 49.8615C51.7593 49.5351 51.9392 49.3066 52.1677 49.2495ZM31.3471 49.2529C32.1305 50.1233 33.0893 50.9057 34.0468 51.689C38.1378 54.9967 39.2694 59.9595 42.3159 63.9634C44.579 67.0099 49.5401 68.8371 51.9773 71.9707C51.9773 72.1448 51.8892 72.3185 51.8022 72.4926C51.7384 72.6839 51.7925 72.8398 51.9025 72.9482C45.1425 66.3941 34.6208 63.2608 25.6893 65.1807C25.2541 65.2677 25.3425 65.9644 25.7778 65.9644C31.1744 65.9644 36.57 66.6611 41.7056 68.489C45.7966 69.9687 49.1919 72.3185 52.4125 75.1039C49.2789 73.6241 45.4491 73.7982 42.4026 75.5391C40.9228 76.4095 39.7032 77.6281 38.3105 78.5856C36.1345 80.0653 33.698 79.8919 31.1737 80.153C28.6495 80.3271 26.299 81.1979 25.1674 83.548C23.9488 86.0723 23.2532 87.7251 20.2067 87.7251C18.3788 87.8121 16.3768 87.3779 14.5489 87.0297C12.5469 86.5945 10.631 85.8098 9.15123 84.3301C7.67151 82.7633 7.14959 80.5872 6.45325 78.6723C5.23465 75.0165 1.40511 72.7537 2.44962 68.5757C3.40709 64.4847 6.88846 60.7428 9.49974 57.4352C10.7183 55.9555 11.8502 54.3017 13.33 53.0831C15.6801 50.9941 17.8555 50.9063 20.902 51.5156C21.0761 51.5156 21.2515 51.6023 21.4256 51.6023C22.4701 52.1246 23.4269 52.8206 24.2103 53.4299C24.7326 53.8651 28.6495 57.0857 28.1272 57.782C28.0402 57.8691 28.1265 58.1309 28.3006 58.0438C29.8674 57.1734 26.6472 54.1276 26.0379 53.5183C25.4286 52.996 24.8203 52.2997 24.0369 51.7774C26.5611 51.6034 28.9099 50.5585 31.3471 49.2529ZM49.1042 49.6014C48.8431 49.6014 48.7567 49.9495 48.9308 50.0366C49.1049 50.2977 49.453 50.5585 49.8012 50.5585C49.9753 50.7326 50.3238 50.4711 50.1497 50.21C49.9756 49.7748 49.5394 49.6014 49.1042 49.6014ZM51.4554 50.3834C51.8906 50.4704 52.2381 50.6459 52.4992 50.907V50.9937C52.2381 50.9937 52.0633 50.9934 51.8022 51.0804H51.367H51.2803C51.3673 50.8193 51.4554 50.6445 51.4554 50.3834ZM51.2803 51.6023H51.4554H51.6288C51.8028 51.7764 52.0633 51.9502 52.2374 52.1243C52.3244 52.1243 52.3254 52.2127 52.4125 52.2127C52.4995 52.2997 52.4989 52.3861 52.5859 52.3861V52.4728C52.4118 52.5598 51.3676 52.7346 51.1935 52.7346V52.2994C51.2806 52.2994 51.2803 52.0375 51.2803 51.6023ZM52.761 52.9947C52.761 53.2558 52.8477 53.5173 52.8477 53.7784C52.5866 53.7784 52.3251 53.9532 52.064 54.0402C51.8028 54.1273 51.6281 53.9535 51.367 53.9535V53.605C51.6281 53.4309 51.9773 53.3439 52.4125 53.1698C52.4995 53.1698 52.674 53.0817 52.761 52.9947ZM52.9344 54.3003C52.9344 54.5614 53.0211 54.8233 53.0211 54.9973C52.847 55.0844 52.8474 55.3452 52.9344 55.5193V55.606C52.8474 55.606 52.761 55.6944 52.761 55.6944C52.5869 55.7814 52.4999 55.7807 52.3258 55.8678L51.5421 56.1296C51.5421 55.9555 51.4554 55.78 51.4554 55.606C51.8035 55.5189 52.064 55.2588 52.064 54.9106V54.6488C52.151 54.6488 52.2384 54.5621 52.4125 54.5621C52.4125 54.5621 52.6733 54.3874 52.9344 54.3003ZM53.1962 56.0412C53.2833 56.4764 53.3693 56.8252 53.4563 57.1734C53.1081 57.1734 52.674 57.3482 52.3258 57.4352C52.1517 57.4352 51.9763 57.5219 51.8022 57.5219C51.7151 57.2608 51.7158 56.9126 51.6288 56.6515C52.064 56.4774 52.4125 56.3033 52.8477 56.2163C52.9347 56.2163 53.1092 56.1282 53.1962 56.0412ZM80.091 56.4764C78.6984 56.6505 77.1316 56.913 75.7389 57.4352C75.5648 57.5223 75.74 57.8704 75.914 57.8704C77.3067 57.7834 78.8738 57.3472 80.1795 56.8249C80.3535 56.7379 80.3522 56.4764 80.091 56.4764ZM53.6314 57.6086L53.8915 58.6525C53.6304 58.8265 53.2822 59.0006 53.0211 59.0877V58.8276C52.9341 58.3923 52.674 58.2176 52.3258 58.1305C52.4128 58.1305 52.4988 58.0438 52.5859 58.0438C52.9341 57.9568 53.3703 57.8698 53.6314 57.6086ZM53.8915 59.001C53.8915 59.088 53.8912 59.1757 53.9782 59.2628C54.0653 59.6109 54.153 59.8717 54.24 60.2199C53.9789 60.394 53.7178 60.5681 53.3696 60.6551C53.1085 60.7422 52.8467 60.7418 52.6726 60.7418C52.5856 60.4807 52.5862 60.3076 52.4992 60.0465H52.5859C53.1081 59.8724 53.5434 59.4362 53.8915 59.001ZM54.3267 60.6551C54.4138 61.0033 54.5012 61.3511 54.6753 61.6122C54.4141 61.6993 54.2394 61.8737 53.9782 61.9608C53.9782 61.8737 53.8915 61.8744 53.8915 61.7874C53.8045 61.7003 53.7171 61.6126 53.543 61.5255C53.543 61.4385 53.4567 61.4388 53.3696 61.4388C53.1955 61.4388 53.0218 61.4392 52.8477 61.3521C53.37 61.3521 53.9786 61.0033 54.3267 60.6551ZM105.439 60.7554C106.294 60.7978 106.934 61.0461 106.901 61.699C106.901 61.873 106.988 62.1355 107.249 62.2226C105.77 62.8319 104.29 63.6142 103.246 64.2235C101.592 65.181 99.8511 66.4006 98.4584 67.8803C98.5455 66.4877 98.1103 65.0079 97.588 63.5282C97.588 63.4412 97.4996 63.3534 97.4996 63.2664C98.8052 62.483 100.112 61.7874 101.505 61.3521C101.995 61.1889 104.014 60.6849 105.439 60.7554ZM54.8487 61.9608C54.9357 62.3089 55.1101 62.6564 55.1972 63.0046C54.6749 63.3528 54.0653 63.7023 53.543 63.5282C53.456 63.3541 53.4567 63.092 53.3696 62.9179C53.4567 62.9179 53.5444 62.9182 53.6314 62.8312C53.8055 62.8312 53.8912 62.6564 53.9782 62.5694C54.3264 62.4823 54.5875 62.2219 54.8487 61.9608ZM110.469 62.1342H110.644C111.08 62.1342 111.602 62.2226 112.037 62.2226C113.691 62.2226 114.561 62.9189 114.735 64.3986C110.557 65.4431 106.117 69.9687 105.247 73.7115C105.247 73.7986 105.246 73.8863 105.333 73.9733C105.333 74.0604 105.422 74.1464 105.422 74.2334H103.332H102.287C102.113 74.0594 101.852 74.0594 101.678 74.2334C101.069 74.2334 100.46 74.3201 99.8508 74.3201H99.5022C97.9355 74.4072 96.368 74.5826 94.8883 74.8438C95.0624 74.3215 95.3245 73.7122 95.4986 73.1029C96.282 72.4936 96.8903 71.7092 97.4996 70.7517L97.7614 70.2298C99.2411 68.576 100.633 67.0099 102.635 65.7043C104.55 64.4857 107.858 62.3953 110.469 62.1342ZM54.762 63.875C54.762 63.9621 54.85 64.0501 54.9371 64.0501C55.0241 64.1372 55.1982 64.2239 55.3723 64.1368C55.4593 64.1368 55.4586 64.1372 55.5457 64.0501C55.5457 64.0501 55.6324 64.0498 55.6324 64.1368L55.8942 64.9206C55.6331 65.0946 55.2849 65.182 55.0238 65.2691C54.9367 65.2691 54.5012 65.5292 54.24 65.5292C54.153 65.094 53.9786 64.572 53.8915 64.1368C54.0656 64.1368 54.4138 64.0491 54.762 63.875ZM120.131 64.9206C121.349 64.9206 122.482 65.0069 123.701 65.094C122.743 65.5292 121.872 66.8355 121.35 67.5318C120.131 69.1856 119.348 71.1009 119 73.1029C119 73.19 119 73.276 119.087 73.363C118.129 73.5371 117.346 73.7112 116.562 73.7982C114.56 74.0594 112.471 74.1464 110.469 74.2334C111.862 72.6667 112.993 70.7528 114.473 69.186C116.127 67.4451 117.868 65.878 120.131 64.9206ZM53.0211 65.0073C53.1952 65.7036 53.3693 66.3136 53.4563 67.0099C53.4563 67.184 53.456 67.2697 53.543 67.3567C53.8912 69.2717 54.1523 71.2743 53.9782 73.2763C53.8912 73.0152 53.8052 72.8404 53.7181 72.5793C53.8922 72.3182 53.9789 71.8836 53.8048 71.5355L53.8915 71.4488C53.8915 71.3617 53.8919 71.2737 53.8048 71.2737C53.7178 71.2737 53.6314 71.275 53.6314 71.3621C53.5444 71.275 53.457 71.274 53.2829 71.187C53.37 69.4461 52.9337 67.5322 52.2374 65.7043C52.4115 65.5302 52.6733 65.3547 52.9344 65.1807C53.0214 65.0936 53.0211 65.0943 53.0211 65.0073ZM118.652 65.094C117.172 65.7033 115.78 66.8355 114.648 67.9671C112.82 69.7079 110.73 71.883 110.034 74.3201C108.554 74.2331 107.161 74.2334 105.769 74.2334C105.856 74.2334 106.03 74.2341 106.03 74.06C106.118 73.7989 106.205 73.5371 106.292 73.363C107.772 71.7092 109.077 69.882 110.818 68.4023C112.123 67.3578 113.69 66.5744 115.17 65.791H115.343C116.475 65.3558 117.52 65.181 118.652 65.094ZM124.396 65.1807C125.092 65.2677 125.876 65.3554 126.659 65.4425C124.57 66.7481 122.569 69.968 122.482 72.5793C121.611 72.8404 120.654 73.0152 119.784 73.2763C120.132 71.7095 120.653 70.2302 121.436 68.8375C122.046 67.793 123.178 65.7029 124.396 65.1807ZM55.9809 65.4425C56.155 65.8777 56.2424 66.2262 56.3294 66.6614C55.8072 66.9225 55.1098 67.1837 54.4134 67.0966C54.3264 66.8355 54.3271 66.4873 54.24 66.2262C54.5012 66.1392 54.763 66.0514 54.9371 65.9644L55.9809 65.4425ZM126.921 65.5292H127.094C128.139 65.6162 129.185 65.6172 130.229 65.7043C129.533 66.4877 129.01 67.4445 128.662 68.489C128.488 69.0983 128.487 69.6205 128.313 70.2298C128.226 70.4039 128.14 70.491 128.14 70.665C128.053 70.7521 127.878 70.7514 127.791 70.8384C126.311 71.4477 124.832 71.9707 123.352 72.4059C123.788 71.2743 124.049 70.0557 124.571 68.9242C125.181 67.7056 126.137 66.7474 126.921 65.6159V65.5292ZM138.063 65.6159H138.323C136.234 69.1846 134.145 72.5796 131.36 75.5391C129.358 75.365 128.314 73.7108 127.269 72.1441C131.273 70.5773 135.103 68.4883 138.063 65.6159ZM137.104 65.7043C134.493 67.271 131.969 68.8375 129.183 70.1431C129.271 69.6209 129.272 69.0976 129.359 68.6624C129.707 67.6179 130.228 66.6611 131.011 65.8777L131.099 65.791C133.101 65.791 135.102 65.7913 137.104 65.7043ZM56.5895 67.0099C56.5895 67.271 56.6779 67.5308 56.6779 67.7919C56.4168 68.2272 55.8942 68.489 55.459 68.489C55.1979 68.489 54.936 68.4893 54.762 68.4023C54.762 68.1411 54.6753 67.9664 54.6753 67.7052C55.3716 67.7052 55.9802 67.3581 56.5895 67.0099ZM24.0386 67.4944C20.8249 67.4348 17.8021 68.7827 14.5489 68.9242C14.1137 68.9242 13.9399 69.6205 14.4622 69.7946C16.029 70.2298 17.5077 69.6212 19.0744 69.186C21.5116 68.4896 23.8625 68.4012 26.2997 68.2272C26.4738 68.2272 26.5608 67.879 26.2997 67.7919C25.5326 67.5961 24.7802 67.5082 24.0386 67.4944ZM56.8513 68.4023C56.8513 68.5764 56.938 68.6634 56.938 68.8375C56.938 69.0116 56.9377 69.1856 57.0247 69.2727C56.6766 69.3597 56.3291 69.5342 55.9809 69.6212C55.6327 69.7082 55.1968 69.9684 54.8487 69.8813C54.8487 69.6202 54.762 69.3587 54.762 69.0976H55.5457C56.155 69.0105 56.5032 68.7504 56.8513 68.4023ZM57.1131 69.7079C57.1131 70.1431 57.1128 70.4916 57.1998 70.9268C56.7646 71.188 56.2413 71.4484 55.7191 71.5355H55.0238V70.5783C55.3719 70.5783 55.7194 70.4039 56.0676 70.2298L57.1131 69.7079ZM32.8772 70.7313C28.3674 70.7728 24.297 72.8904 20.3801 74.9305C20.119 75.1046 20.2941 75.5394 20.5552 75.4524C24.9073 73.7115 28.8239 71.0132 33.6983 71.1003C33.9594 71.0132 33.9591 70.7517 33.785 70.7517C33.4804 70.7354 33.1778 70.7286 32.8772 70.7313ZM57.2865 71.4488V72.6677C57.1995 72.6677 57.1118 72.6674 57.0247 72.7544C56.5025 73.0155 55.9816 73.1896 55.3723 73.1896H54.9371C54.9371 72.8414 55.0238 72.4936 55.0238 72.2325C55.2849 72.2325 55.6331 72.2311 55.8942 72.1441C56.4165 72.057 56.9384 71.7969 57.2865 71.4488ZM126.486 72.4059C127.356 74.1467 128.922 75.8006 130.924 75.8876C130.663 76.2358 130.316 76.5846 129.881 77.0198C128.662 78.1514 127.094 79.0218 125.702 80.0663C124.048 79.7182 121.175 78.4996 121.001 78.3255C119.434 77.455 118.217 76.2351 117.173 74.7554C117.434 74.7554 117.694 74.6687 117.955 74.6687C120.74 74.2334 123.613 73.4504 126.486 72.4059ZM51.9178 72.9618C52.1114 73.1372 52.4577 73.1757 52.6726 73.0145C52.7596 73.1886 52.9341 73.4507 53.0211 73.6248C52.9341 73.6248 52.848 73.7112 52.761 73.7982C52.4907 73.5104 52.2019 73.2377 51.9178 72.9618ZM57.1131 73.363C57.1131 74.3205 56.5025 74.9308 55.2839 75.279C55.0227 75.1919 54.763 75.0175 54.5019 74.9305C54.5889 74.5823 54.6753 74.3215 54.6753 73.9733C55.4586 74.0604 56.5038 73.7112 57.1131 73.363ZM76.339 73.6588C78.2744 73.6684 80.2434 73.8418 82.2671 74.2334C84.008 74.5816 86.0113 74.9298 88.0133 75.1039C90.0153 76.4095 91.9292 77.8899 93.496 79.7178C94.5405 80.9364 95.5857 82.3284 96.3691 83.8081C97.0654 85.1138 97.6744 86.5939 96.891 88.0736C96.3687 88.944 95.4116 89.5536 94.6282 90.1629C92.4521 91.8168 91.4069 93.645 90.8847 95.734C90.1013 92.0782 88.3611 87.9862 85.0535 85.9842C84.7924 85.8101 84.5309 86.1583 84.705 86.4194C86.9681 89.2918 88.7086 91.9035 89.579 95.4722C89.8402 96.5167 90.1887 97.8217 90.3628 99.1273C90.2757 100.346 90.2764 101.565 90.1894 102.871C89.7542 106.788 87.9249 110.008 84.008 111.14C80.3522 112.271 76.61 111.228 72.9542 110.966H71.7353C72.9539 109.139 73.3888 106.179 72.2572 104.438C72.1702 104.264 71.9971 104.351 71.9971 104.525C71.9101 105.744 72.1715 106.961 71.9104 108.267C71.7363 109.224 71.2997 110.096 70.9516 110.966C70.2552 110.966 69.4718 111.053 68.7755 111.14C67.1217 111.314 64.4247 112.01 62.7709 111.227C61.1171 110.356 61.639 108.616 61.552 107.136C61.7261 106.44 61.8134 105.83 61.9005 105.134C62.0746 103.567 62.1603 102.001 61.8121 100.521C61.8121 99.9991 61.9005 99.3898 61.9005 98.7805C61.8134 94.3413 61.1164 89.8137 59.8978 85.6357C59.2885 83.4596 58.6792 80.4135 57.2865 78.1504C58.157 78.4985 59.1141 78.7597 59.9845 79.0208C61.6383 79.6301 63.2932 80.0656 64.947 80.6749C69.4732 82.3287 71.9101 85.7241 75.0436 89.2058C75.1306 89.3799 75.3907 89.2048 75.3037 89.0307C73.3017 85.3749 70.5174 81.8068 66.7745 79.7178C65.0337 78.7603 63.1181 78.063 61.2902 77.3666C60.6809 77.1055 59.9855 76.8457 59.2892 76.5846C65.034 75.0831 70.533 73.6303 76.339 73.6588ZM94.8016 73.7115C94.7146 74.1467 94.6282 74.4956 94.6282 74.8438C94.7153 74.9308 94.7149 74.9301 94.7149 75.0172C94.4538 75.0172 94.1923 75.1039 93.9312 75.1039C93.7571 74.6687 93.1481 74.7567 92.9741 75.279C92.1907 75.366 91.3196 75.5401 90.5362 75.7142C90.4491 75.7142 90.3628 75.8006 90.3628 75.8876C90.0146 75.6265 89.5787 75.365 89.2305 75.1039C91.2325 75.1039 93.2348 74.669 94.8016 73.7115ZM47.9736 74.8098C49.9974 74.7771 52.0208 75.3215 53.7181 76.4095C53.544 76.4966 53.4567 76.5839 53.3696 76.758C53.1955 77.1062 53.6314 78.5859 53.6314 78.4989C53.7185 79.4564 53.63 80.5012 53.543 81.4587C53.1949 86.3331 51.2803 90.8589 48.669 95.037C48.4949 95.2981 48.9301 95.6466 49.1042 95.3855C51.4543 92.6001 53.0214 89.3796 53.8048 85.8108C54.153 84.157 54.4148 82.4158 54.5019 80.6749C54.5019 79.8045 54.3264 78.7607 54.4134 77.8903C54.5005 77.4551 54.4134 77.2806 54.4134 77.1065L55.3723 78.0637H55.459C58.5925 85.0271 60.6809 93.1221 59.9845 100.695C59.4623 104.699 57.3729 108.529 55.2839 111.924C52.7596 115.928 49.6271 117.146 45.0139 116.798C41.271 116.45 36.7451 116.624 33.1764 115.319C30.8262 114.448 30.6511 112.445 29.9548 110.356C29.6937 109.573 29.3462 108.79 28.9109 108.093C28.7369 107.571 28.6495 107.049 28.5624 106.439C27.9531 103.132 29.0847 100.956 30.3033 98.0835C30.3903 97.8224 30.0422 97.4739 29.8681 97.735C27.7791 100.346 27.2571 103.218 27.6053 106.091C26.8219 105.133 25.8634 104.264 24.8189 103.568C23.4262 102.61 21.5123 101.913 21.0771 99.9978C20.1196 96.0808 22.6435 91.556 23.7751 87.9002C24.5585 87.3779 25.0807 86.5945 25.5159 85.7241C25.9512 84.7666 26.2116 83.5477 26.995 82.7643C28.1265 81.5457 30.0418 81.2842 31.6956 81.1102C33.5235 80.9361 35.4392 81.0228 37.18 80.3264C39.182 79.5431 40.5737 77.8899 42.2275 76.6713C43.9248 75.4527 45.9499 74.8424 47.9736 74.8098ZM116.389 75.0172C118.043 77.6285 121.612 80.5005 125.006 80.7617C124.745 80.9357 124.397 81.1975 124.136 81.4587C123.701 81.8939 123.613 82.3284 123.439 82.9377C122.917 84.5045 121.263 85.3753 119.871 86.3327C119.273 86.7312 118.653 87.1079 118.019 87.4616C118.018 87.4194 117.997 87.3765 117.955 87.3765C113.864 87.3765 110.556 85.9842 107.51 83.3729C104.811 81.1098 103.593 78.4992 102.722 75.3657H106.292C108.207 75.4527 110.122 75.4527 112.037 75.3657C113.081 79.6308 119.348 83.2862 123.526 82.4158C123.613 82.4158 123.613 82.241 123.526 82.154C121.524 81.4576 119.523 81.2846 117.608 80.153C115.606 79.0215 113.777 77.455 112.994 75.279L116.389 75.0172ZM99.5023 75.279C99.8504 82.2424 106.727 88.6836 113.691 89.2058C113.169 89.3799 112.559 89.4656 111.95 89.5526H111.426C111.426 89.5526 111.515 89.553 111.515 89.4659C111.863 89.3789 111.688 88.9437 111.426 89.0307C102.983 91.8161 95.7601 83.2869 94.1063 75.7142C95.9342 75.5401 97.6744 75.366 99.5023 75.279ZM100.459 75.279H101.852C102.548 79.1089 104.289 81.9813 107.51 84.4185C110.348 86.5689 114.121 88.2893 117.822 87.5738C117.133 87.9496 116.423 88.2942 115.692 88.5955C112.123 88.5955 108.729 87.5513 105.944 85.0271C102.81 82.2417 101.939 78.9348 100.459 75.279ZM93.1475 75.8876C93.3215 76.9321 93.583 77.9766 93.9312 78.9341C92.9737 77.8896 92.0162 77.0195 90.8847 76.2361C91.6681 76.062 92.3641 75.9746 93.1475 75.8876ZM80.8357 82.8952C80.7899 82.902 80.7449 82.916 80.7014 82.9377C80.6143 82.9377 80.5276 83.0258 80.6147 83.1128C80.7017 83.461 81.1356 83.547 81.3967 83.8081C81.7449 84.0693 82.0074 84.3304 82.3555 84.6786C82.6167 85.0267 83.1386 84.5048 82.8774 84.1567C82.4422 83.8085 82.0934 83.5474 81.7452 83.2862C81.5167 83.1339 81.1558 82.8476 80.8357 82.8952ZM45.6497 83.5922C45.5844 83.5963 45.5144 83.6344 45.4491 83.7214C42.2285 87.7254 38.7458 91.9905 37.8753 97.2131C37.8753 97.4742 38.2238 97.5609 38.2238 97.2998C39.7036 92.2513 42.577 88.161 45.7976 84.07C45.9934 83.8741 45.8455 83.58 45.6497 83.5922ZM97.8481 85.549C98.4574 86.1583 98.9793 86.7676 99.6757 87.2899C102.287 89.4659 105.856 91.2078 109.164 90.5115C109.077 90.5985 109.077 90.6845 109.077 90.7716C108.99 90.9456 109.077 91.1194 109.164 91.2935C107.075 92.338 104.55 92.4264 102.287 91.8171C100.285 91.2948 98.98 89.8138 97.3262 88.6822C97.6744 88.1599 97.8478 87.639 97.9348 87.0297C98.0219 86.5075 97.9351 85.9842 97.8481 85.549ZM96.8043 89.2925C99.2415 91.2075 100.809 92.6868 104.116 92.8609C105.509 92.948 107.772 93.035 108.99 91.9905C108.729 93.2091 108.119 94.6018 106.901 95.037C105.943 95.3852 104.724 95.3855 103.593 95.3855C103.506 95.2985 103.42 95.1237 103.246 95.1237C100.112 94.7755 97.4999 92.7732 96.1072 89.9878C96.3684 89.7267 96.6302 89.5536 96.8043 89.2925ZM116.389 89.9878C117.607 90.6842 118.826 91.5546 119.871 92.5991C116.998 91.5546 113.428 90.5971 110.556 92.1639C110.556 91.9898 110.558 91.7294 110.644 91.5553C111.08 90.3367 113.255 90.7722 114.3 90.5982C114.996 90.4241 115.693 90.249 116.389 89.9878ZM95.4119 90.5982C96.5435 92.6872 98.2833 94.34 100.459 95.2104C98.1092 94.8622 95.7591 94.1669 93.496 93.2094L93.4093 93.1227C93.3222 92.9487 93.1482 92.8609 92.9741 92.8609C93.6704 91.9905 94.5415 91.3815 95.4119 90.5982ZM114.648 92.2523C116.389 92.2523 118.042 92.6868 119.695 93.2961C119.957 93.3832 120.131 93.1217 120.131 92.9476L120.306 93.1227C119.348 93.8191 118.652 94.7755 118.478 95.9941C118.478 96.1682 118.477 96.342 118.39 96.516C116.649 95.2104 114.126 95.3845 112.037 95.6456C110.383 95.8197 108.729 96.1686 107.163 96.7779C106.64 96.9519 106.031 97.2137 105.509 97.4749C104.986 97.736 104.551 97.9958 104.116 98.2569C103.681 98.3439 103.506 98.5194 103.419 98.7805H103.157C103.157 98.7805 103.071 98.7802 103.071 98.8672C102.984 98.9543 102.897 99.0403 102.897 99.1273C102.81 99.0403 102.723 99.041 102.635 98.9539C100.111 97.6483 97.1514 96.5164 94.8883 94.6885C96.7162 95.5589 98.7189 96.0815 100.808 96.3426C103.158 96.6908 106.379 96.8656 108.555 95.734C109.338 95.2988 110.034 94.7752 110.383 93.9048C110.47 93.6436 110.556 93.2955 110.556 93.0343C111.949 92.5991 113.168 92.2523 114.648 92.2523ZM92.4521 93.8181C93.3226 94.9496 94.4538 95.9081 95.5853 96.6044C94.5408 99.4769 94.8897 103.22 95.4119 106.179C95.8471 108.616 96.7176 110.878 98.0232 112.967C97.675 112.793 97.3262 112.62 96.891 112.446C95.0631 111.401 93.9319 110.27 92.8874 108.442C92.3651 107.571 92.0169 106.701 91.5817 105.831C92.2781 102.262 91.0595 98.6058 92.0169 95.037C92.104 94.6018 92.2781 94.1662 92.4521 93.8181ZM52.4278 94.2329C52.3843 94.2424 52.3475 94.2747 52.3258 94.34C51.8906 95.2974 51.368 96.1679 50.6716 96.9513C50.0623 97.7346 49.1919 98.1709 48.4956 98.8672C48.3215 99.0413 48.4945 99.3024 48.7557 99.3024C50.8447 98.8672 52.3244 96.43 52.6726 94.5151C52.7379 94.3845 52.5583 94.2043 52.4278 94.2329ZM114.922 96.3851C116.34 96.4234 117.63 96.767 118.478 97.6483C118.739 98.6058 119.434 99.5639 120.131 100.521C118.564 99.9991 116.563 100.173 115.083 100.26C113.255 100.434 111.513 100.869 110.121 102C110.034 102 110.034 102 109.947 102.087L109.686 102.349C109.424 102.61 109.773 103.045 110.121 102.871C111.949 102 113.778 101.39 115.867 101.303C117.347 101.216 119.175 100.957 120.654 101.392C121.09 102.001 121.437 102.61 121.698 103.219C120.567 102.784 119.175 102.696 118.043 102.609C115.954 102.348 113.516 102.871 111.775 104.176L111.688 104.263C109.164 102.696 106.552 101.217 103.941 99.8243C104.376 99.7373 104.985 99.128 105.333 98.9539C106.204 98.4317 107.249 97.9965 108.207 97.6483C109.839 97.1043 112.559 96.3214 114.922 96.3851ZM70.8717 96.8459C70.6799 96.8214 70.4511 97.0172 70.5163 97.2131C70.6904 97.9094 70.8659 98.6925 71.04 99.4758C71.127 100.259 71.126 101.042 71.3001 101.739C71.3871 101.913 71.5615 101.913 71.6486 101.739C72.1708 100.259 71.6493 98.3439 71.04 96.9513C70.9964 96.886 70.9356 96.854 70.8717 96.8459ZM96.2824 96.9513C96.9787 97.3865 97.675 97.735 98.4584 98.1702C98.6325 98.2572 98.8066 98.345 98.8936 98.432L98.8052 98.5187C98.1959 100.782 99.0667 103.48 100.024 105.569C101.243 108.354 103.593 110.183 105.16 112.707C105.421 113.926 105.769 115.144 106.117 116.362C103.941 115.579 101.678 114.709 99.589 113.664V113.578C97.587 111.141 96.7176 108.267 96.2824 105.134C95.9342 102.348 96.3694 99.6496 96.2824 96.9513ZM99.3289 98.6921C100.46 99.3014 101.679 99.8237 102.811 100.433C102.114 103.828 103.419 109.051 106.466 111.14C106.205 111.14 105.943 111.14 105.682 111.053C105.421 111.053 105.247 111.141 105.16 111.402C104.028 109.835 102.636 108.355 101.592 106.614C100.112 104.003 100.025 101.477 99.3289 98.6921ZM103.419 100.695C104.725 101.391 106.117 102.087 107.423 102.871C106.901 105.743 108.033 109.66 110.296 111.575C109.425 111.401 108.642 111.314 107.771 111.227C107.771 111.14 107.685 111.054 107.598 110.966C104.203 109.4 103.332 104.264 103.419 100.695ZM108.12 103.306C108.207 103.306 108.206 103.393 108.293 103.393C110.295 104.524 112.123 105.656 113.864 106.874C113.864 106.874 113.865 106.961 113.778 106.961V107.05V107.31V107.658C113.778 107.919 113.691 108.267 113.691 108.529C113.691 109.138 113.777 109.661 113.951 110.183C114.212 111.227 114.735 112.097 115.432 112.881C114.126 112.446 112.82 112.098 111.515 111.837C111.515 111.75 111.514 111.662 111.34 111.575C108.293 109.66 108.99 106.266 108.12 103.306ZM117.638 103.337C119.005 103.3 120.85 103.35 121.96 103.741C122.656 105.134 122.916 106.439 123.09 107.832C122.916 107.745 122.656 107.659 122.395 107.571C120.741 107.136 118.651 106.875 116.998 107.571C116.91 107.571 116.911 107.658 116.824 107.745C115.344 106.526 113.777 105.483 112.21 104.438C113.69 104.177 114.996 103.567 116.476 103.393C116.78 103.371 117.183 103.349 117.638 103.337ZM60.6815 104.874V105.309L60.5948 105.22C60.5948 105.133 60.6815 104.961 60.6815 104.874ZM114.473 107.31C117.781 109.66 120.654 112.533 122.83 116.276V116.362C120.654 115.057 118.391 114.013 116.04 113.143C116.214 112.968 116.301 112.793 116.127 112.619C115.344 111.836 114.822 110.879 114.561 109.834C114.387 108.964 114.56 108.18 114.473 107.31ZM120.088 107.947C120.393 107.947 120.696 107.963 121.001 108.007C121.523 108.094 122.568 108.181 123.09 108.355C123.178 108.355 123.179 108.442 123.266 108.442C123.353 110.705 123.178 112.968 123.004 115.319C121.785 112.533 119.696 110.182 117.346 108.093C118.26 108.093 119.174 107.947 120.088 107.947Z" fill="#C2975D"/>
</svg>
