<svg width="101" height="101" viewBox="0 0 101 101" fill="none" xmlns="http://www.w3.org/2000/svg">
<path d="M14.5688 84.0941C15.9892 85.6566 17.1256 86.3668 17.8358 86.7929C18.404 87.077 18.8301 87.2191 18.8301 87.2191C18.8301 87.2191 18.8301 87.2191 18.1199 86.5088C17.5517 85.9406 16.5574 85.2304 15.279 83.6679C14.4267 82.6736 12.5801 80.1168 12.5801 79.9747C12.4381 79.8327 12.4381 79.8327 12.4381 79.8327C12.4381 79.8327 12.4381 80.2588 12.7222 80.827C12.8642 81.3952 13.2904 82.5316 14.5688 84.0941ZM38.4324 33.952C36.5858 36.5088 36.5858 37.3611 36.5858 37.3611C36.5858 37.3611 37.4381 36.935 39.1426 34.3782C41.1313 31.6793 41.1313 30.685 41.1313 30.685C41.1313 30.685 40.279 31.2532 38.4324 33.952ZM79.0574 88.2134C78.6313 88.2134 78.0631 88.2134 77.3529 88.2134C74.3699 88.2134 71.529 87.5031 68.8301 86.0827C65.7051 84.3781 63.4324 82.1054 61.5858 79.1225C61.3017 78.6963 61.1597 78.4122 61.0176 78.1282C60.8756 77.8441 60.7335 77.702 60.7335 77.56C60.5915 77.2759 60.4494 77.1338 60.4494 77.1338C60.4494 77.1338 60.4495 77.2759 60.5915 77.702C60.7335 78.1281 60.8756 78.6963 61.3017 79.5486C61.7279 80.4009 62.4381 81.5372 63.4324 82.8157C64.5688 84.0941 66.1313 85.5145 68.404 86.7929C70.8188 88.0713 73.0915 88.4975 74.796 88.6395C75.2222 88.6395 75.6483 88.6395 76.0744 88.6395C77.2108 88.6395 78.2051 88.4975 78.9154 88.3554C79.9097 88.2134 80.6199 87.9293 80.904 87.7872C81.3301 87.6452 81.4722 87.5031 81.4722 87.5031C81.4722 87.5031 81.3301 87.5031 80.904 87.6452C80.7619 88.0713 80.0517 88.2134 79.0574 88.2134ZM67.6938 75.0032C68.1199 75.7134 68.8301 76.7077 69.8245 77.56C70.9608 78.5543 71.9551 79.1225 72.8074 79.5486C73.6597 79.9747 74.3699 80.1168 74.9381 80.2588C75.3642 80.4009 75.7904 80.4009 75.9324 80.4009C76.2165 80.4009 76.3585 80.4009 76.3585 80.4009C76.3585 80.4009 76.2165 80.4009 76.0744 80.2588C75.7904 80.1168 75.5063 80.1168 75.0801 79.8327C74.654 79.6906 73.9438 79.4066 73.0915 78.9804C72.2392 78.5543 71.3869 77.9861 70.2506 76.9918C69.2563 75.9975 68.546 75.1452 68.1199 74.435C67.9779 74.2929 67.8358 74.1509 67.8358 73.8668C67.6938 73.7247 67.6938 73.5827 67.5517 73.4406C67.4097 73.1566 67.2676 72.8725 67.1256 72.7304C66.8415 72.3043 66.6995 72.0202 66.6995 71.8782C66.5574 71.7361 66.5574 71.7361 66.5574 71.7361C66.5574 71.7361 66.5574 72.4463 66.8415 73.1566C66.8415 73.5827 67.1256 74.1509 67.6938 75.0032ZM37.5801 62.077C36.8699 64.9179 36.4438 67.9009 36.4438 71.5941C36.4438 73.7247 36.5858 75.4293 36.8699 76.8497C37.154 78.4122 37.296 79.5486 37.5801 80.4009C38.0063 81.8213 38.2904 82.6736 38.2904 82.6736C38.2904 82.6736 38.2904 82.5316 38.2904 82.1054C38.2904 81.6793 38.1483 81.1111 38.0063 80.2588C37.8642 79.4066 37.7222 78.2702 37.5801 76.7077C37.4381 75.4293 37.296 73.7247 37.296 71.7361C37.296 71.452 37.296 71.1679 37.296 70.8838C37.4381 65.202 38.1483 61.6509 38.2904 60.2304C38.2904 59.9463 38.2904 59.8043 38.2904 59.8043C38.2904 59.8043 37.8642 60.7986 37.5801 62.077ZM19.9665 91.0543C16.6995 88.9236 14.2847 86.3668 12.5801 83.3838C10.7335 80.2588 9.88127 77.1338 9.45513 73.5827C9.45513 73.2986 9.31309 71.31 9.31309 71.31C9.31309 71.31 9.31309 71.452 9.17104 71.8782C9.17104 72.3043 9.029 73.0145 9.029 74.0088C9.029 75.0032 9.17104 76.2816 9.45513 77.9861C9.88127 79.6906 10.4495 81.6793 11.7279 83.952C13.1483 86.3668 14.7108 87.9293 16.1313 89.2077C17.5517 90.3441 18.6881 91.0543 19.6824 91.6225C20.5347 92.0486 21.2449 92.3327 21.671 92.4747C22.0972 92.6168 22.2392 92.6168 22.2392 92.6168C22.2392 92.6168 22.0972 92.4747 21.671 92.3327C21.387 91.9066 20.8188 91.6225 19.9665 91.0543ZM31.7563 40.4861C32.8926 39.3497 34.5972 37.3611 37.154 34.2361C39.8529 30.827 41.2733 28.5543 42.1256 27.1338C42.9779 25.7134 43.1199 25.1452 43.1199 25.1452C43.1199 25.1452 42.6938 25.5713 41.6995 26.8497C40.7051 28.1282 39.0006 30.2588 36.3017 33.81C33.6029 37.2191 32.0404 39.2077 31.1881 40.4861C30.3358 41.6225 30.1938 42.0486 30.1938 42.0486C30.1938 42.0486 30.6199 41.6225 31.7563 40.4861ZM45.5347 43.185C45.6767 42.4747 45.9608 41.4804 46.1029 39.6338C46.1029 38.9236 46.2449 38.3554 46.2449 37.7872C46.2449 37.077 46.2449 36.5088 46.1029 36.2247C45.9608 35.6566 45.8188 35.5145 45.8188 35.5145C45.8188 35.5145 45.6767 35.7986 45.6767 36.3668C45.5347 36.935 45.3926 38.0713 45.2506 39.6338C45.1085 41.1963 45.1085 42.1907 45.1085 42.9009C45.1085 43.7532 45.2506 44.0372 45.2506 44.0372C45.2506 44.0372 45.3926 43.8952 45.5347 43.185ZM64.0006 71.452C64.1426 72.3043 64.5688 73.2986 64.9949 74.435C65.421 75.4293 65.9892 76.5656 66.9835 77.702C67.9779 78.8384 68.9722 79.8327 69.9665 80.5429C70.9608 81.2531 71.9551 81.8213 72.8074 82.2475C74.5119 83.0997 76.0744 83.3838 77.0688 83.5259C77.6369 83.5259 78.0631 83.6679 78.3472 83.6679C78.3472 83.6679 78.3472 83.6679 78.4892 83.6679C78.6313 83.6679 78.6313 83.6679 78.7733 83.6679C79.0574 83.6679 79.1994 83.6679 79.4835 83.6679C79.9097 83.6679 80.0517 83.6679 80.0517 83.6679C80.0517 83.6679 79.9097 83.6679 79.3415 83.6679C79.0574 83.6679 78.7733 83.6679 78.4892 83.5259C78.0631 83.5259 77.6369 83.3838 77.2108 83.2418C76.2165 82.9577 74.796 82.5316 73.0915 81.6793C72.2392 81.2532 71.3869 80.685 70.3926 79.9747C69.3983 79.2645 68.546 78.4122 67.6938 77.2759C66.8415 76.1395 66.2733 75.0032 65.8472 74.0088C65.421 73.0145 65.137 72.0202 64.8529 71.1679C64.4267 69.4634 64.2847 68.0429 64.0006 67.1907C63.5744 64.7759 63.5745 64.7759 63.5745 64.7759C63.5745 64.7759 63.5745 65.3441 63.5745 65.4861C63.5745 65.9122 63.5745 66.6225 63.5745 67.6168C63.4324 68.185 63.5744 69.6054 64.0006 71.452ZM47.3813 47.3043C47.5233 46.0259 47.8074 43.8952 47.9495 40.4861C47.9495 39.9179 47.9495 39.3497 47.9495 38.7816C47.9495 36.3668 47.8074 34.9463 47.6654 33.952C47.5233 32.8157 47.3813 32.5316 47.3813 32.5316C47.3813 32.5316 47.3813 32.9577 47.2392 34.2361C47.2392 35.5145 47.0972 37.5032 47.0972 40.6282C46.9551 43.6111 46.9551 45.4577 46.9551 46.8782C46.9551 48.5827 47.0972 49.1509 47.0972 49.1509C47.0972 49.1509 47.2392 48.5827 47.3813 47.3043ZM48.6597 88.7816C48.3756 88.3554 47.9495 87.9293 47.5233 87.2191C47.0972 86.5088 46.529 85.6566 45.9608 84.5202C44.6824 81.6793 44.3983 79.6906 44.1142 79.1225C44.1142 78.9804 43.9722 78.8384 43.9722 78.8384C43.9722 78.8384 43.9722 79.2645 43.9722 79.6906C43.9722 81.5372 44.5404 83.2418 45.2506 84.9463C45.8188 86.0827 46.529 87.077 47.0972 87.6452C47.6654 88.3554 48.0915 88.7816 48.5176 89.0656C49.0858 89.6338 49.654 89.7759 49.654 89.7759C49.654 89.7759 49.654 89.6338 49.512 89.4918C49.0858 89.3497 48.9438 89.2077 48.6597 88.7816ZM55.4779 94.4634C55.3358 94.3213 55.0517 94.1793 54.7676 93.8952C54.4835 93.6111 54.1994 93.327 53.7733 92.9009C53.0631 92.1907 52.0688 91.0543 50.9324 89.4918C49.796 87.9293 48.6597 85.9406 47.6654 83.3838C46.671 80.685 46.2449 78.5543 45.9608 76.7077C45.9608 76.2816 45.8188 75.8554 45.8188 75.4293C45.8188 75.0032 45.8188 74.7191 45.8188 74.2929C45.8188 73.5827 45.8188 73.4407 45.8188 71.8782C45.8188 71.452 45.8188 71.0259 45.8188 70.5997C45.8188 70.1736 45.8188 70.1736 45.8188 70.1736C45.8188 70.1736 45.8188 70.3157 45.6767 70.7418C45.5347 71.1679 45.3926 71.8782 45.3926 72.8725C45.3926 73.1566 45.3926 73.4406 45.3926 73.7247C45.3926 74.0088 45.3926 74.2929 45.3926 74.7191C45.3926 74.8611 45.3926 74.8611 45.3926 75.0032C45.3926 75.5713 45.5347 76.2816 45.5347 77.1338C45.6767 78.9804 46.1029 81.1111 47.0972 83.6679C47.3813 84.3781 47.6654 84.9463 47.9495 85.5145C48.2335 86.0827 48.5176 86.6509 48.8017 87.2191C49.0858 87.7872 49.3699 88.2134 49.654 88.6395C49.9381 89.0656 50.2222 89.4918 50.5063 89.9179C51.6426 91.3384 52.779 92.4747 53.4892 93.185C53.9154 93.4691 54.1994 93.8952 54.4835 94.0372C55.0517 94.3213 55.3358 94.4634 55.4779 94.4634C55.7619 94.7475 55.904 94.8895 55.904 94.8895C55.904 94.8895 55.904 94.7475 55.4779 94.4634ZM56.8983 93.0429C56.7563 92.9009 56.6142 92.7588 56.3301 92.6168C55.3358 91.7645 54.3415 90.4861 53.4892 89.2077C51.9267 86.935 50.2222 83.952 49.2279 79.8327C48.0915 75.7134 47.9495 72.4463 47.8074 69.7475C47.6654 67.0486 47.6654 65.06 47.6654 63.6395C47.6654 62.2191 47.6654 61.3668 47.6654 60.7986C47.6654 60.2304 47.6654 60.0884 47.6654 60.0884C47.6654 60.0884 47.6654 60.3725 47.5233 60.9406C47.5233 61.6509 47.3813 62.6452 47.2392 64.2077C47.2392 65.202 47.0972 66.4804 47.0972 68.0429C47.0972 68.7531 47.0972 69.4634 47.0972 70.3157C47.2392 73.0145 47.3813 76.2816 48.5176 80.1168C49.654 84.2361 51.3585 87.3611 53.0631 89.6338C54.7676 91.9066 56.4722 93.327 57.7506 94.1793C59.029 95.0316 60.0233 95.5997 60.5915 95.7418C61.1597 96.0259 61.4438 96.0259 61.4438 96.0259C61.4438 96.0259 61.1597 95.8838 60.5915 95.5997C60.0233 95.3156 59.029 94.7475 57.8926 93.7532C57.6085 93.7532 57.1824 93.4691 56.8983 93.0429ZM83.8869 82.5316C83.3188 83.0997 82.1824 83.81 80.3358 84.2361C79.7676 84.3782 79.1994 84.3781 78.4892 84.3781C76.7847 84.3781 74.796 84.0941 72.5233 83.2418C71.8131 82.9577 70.9608 82.5316 70.1085 81.9634C69.2563 81.3952 68.546 80.827 67.8358 80.1168C66.2733 78.6963 64.9949 76.7077 64.0006 74.435C63.0063 72.0202 62.4381 69.8895 62.012 67.7588C61.5858 65.7702 61.4438 63.9236 61.3017 62.2191C61.1597 60.0884 61.1597 58.2418 61.1597 56.8213C61.1597 56.1111 61.1597 55.4009 61.1597 54.8327C61.3017 51.4236 61.3017 50.9975 61.3017 50.5713C61.3017 50.4293 61.3017 50.2872 61.3017 50.2872C61.3017 50.2872 61.3017 50.5713 61.1597 51.4236C61.0176 52.2759 60.8756 53.5543 60.7335 55.4009C60.7335 56.5372 60.5915 57.9577 60.5915 59.5202C60.5915 60.5145 60.5915 61.7929 60.7335 63.0713C60.8756 64.6338 61.0176 66.4804 61.4438 68.4691C61.8699 70.4577 62.4381 72.5884 63.4324 74.8611C64.5688 77.2759 65.9892 79.2645 67.5517 80.827C68.404 81.5372 69.1142 82.2475 69.9665 82.6736C70.8188 83.2418 71.671 83.5259 72.5233 83.952C74.654 84.6622 76.5006 84.9463 78.0631 84.9463C79.0574 84.9463 79.7676 84.8043 80.6199 84.6622C82.3244 84.0941 83.4608 83.2418 83.8869 82.5316C84.3131 82.2475 84.4551 82.1054 84.4551 81.9634C84.5972 81.8213 84.5972 81.6793 84.5972 81.6793C84.5972 81.6793 84.5972 81.6793 84.4551 81.8213C84.3131 81.9634 84.171 82.2475 83.8869 82.5316ZM76.2165 47.1622C72.8074 44.0372 65.5631 35.6566 60.8756 39.3497C57.7506 41.7645 57.6085 56.5372 57.6085 60.2304C57.6085 77.4179 68.1199 86.935 76.7847 86.935C85.7335 86.935 89.4267 80.2588 89.4267 72.1622C89.4267 58.5259 79.0574 49.8611 76.2165 47.1622ZM76.9267 85.6566C66.2733 85.6566 58.887 73.0145 58.887 61.0827C58.887 56.8213 59.3131 49.7191 60.4494 43.7532C60.8756 41.3384 61.5858 39.3497 64.0006 39.3497C67.5517 39.3497 88.4324 55.2588 88.4324 72.1622C88.4324 79.8327 85.0233 85.6566 76.9267 85.6566ZM77.779 43.327C72.9494 36.3668 65.8472 22.1622 59.8813 22.1622C59.029 22.1622 58.1767 22.4463 57.3244 22.8725C57.4665 22.7304 57.4665 22.5884 57.4665 22.4463C57.7506 21.7361 56.8983 19.1793 55.4779 19.1793C55.3358 19.1793 53.7733 19.1793 53.7733 19.1793C53.3472 18.4691 52.6369 17.7588 51.9267 17.1907C52.779 16.0543 53.4892 14.7759 54.3415 13.4975C55.1938 12.3611 56.046 11.2247 56.7563 10.0884L56.8983 9.94633C57.0404 9.80429 57.3244 9.37815 57.3244 9.23611C58.1767 7.53156 59.5972 3.98042 59.5972 3.12815C59.5972 1.28156 56.1881 0.713379 55.762 0.713379C54.4835 0.713379 54.6256 1.99179 54.3415 2.70202C54.1995 2.98611 53.7733 4.40656 53.4892 4.69065C49.9381 7.24747 43.1199 10.7986 41.4154 12.077C39.9949 11.6509 38.5745 11.3668 37.0119 11.3668C29.0574 11.3668 19.9665 17.4747 16.8415 29.9747C16.2733 32.2475 15.9892 42.7588 15.9892 44.0372C15.9892 44.3213 15.9892 44.4634 16.1313 44.4634C16.1313 44.4634 18.1199 43.0429 22.0972 41.4804C20.3926 44.0372 18.1199 46.452 16.8415 48.0145C10.8756 54.5486 5.33582 59.9463 5.33582 70.7418C5.33582 85.2304 14.4267 98.4406 31.3301 98.4406C37.0119 98.4406 42.4097 96.0259 46.8131 92.0486C53.0631 97.7304 61.5858 100.713 69.9665 100.713C84.7392 100.713 94.9665 93.4691 94.9665 78.1282C94.9665 64.4918 87.8642 57.5316 77.779 43.327ZM56.1881 20.1736C56.3301 20.4577 56.4722 20.8838 56.6142 21.1679C56.7563 21.5941 56.7563 22.0202 56.8983 22.4463C55.6199 23.4407 53.9154 23.8668 52.2108 24.0088C51.6426 24.0088 51.2165 24.0088 50.9324 23.4407C50.7904 23.2986 50.6483 22.1622 50.5063 22.1622C51.0744 22.4463 51.7847 22.3043 52.3529 22.3043C53.9154 22.0202 55.3358 21.31 56.1881 20.1736ZM55.762 19.8895C52.4949 22.1622 51.7847 21.7361 50.3642 21.5941C50.3642 21.5941 50.3642 21.5941 50.3642 21.452C52.2108 20.3157 53.7733 19.8895 55.762 19.8895ZM52.779 7.81565C53.3472 8.24179 53.9154 8.52588 54.6256 8.52588C54.9097 8.52588 55.6199 8.38383 55.6199 8.09974C55.6199 7.9577 55.4779 7.81565 55.3358 7.81565C53.9154 7.81565 53.4892 7.38952 53.0631 6.96338C54.1994 5.40088 54.6256 2.84406 54.6256 1.56565C54.7676 1.56565 54.9097 1.56565 55.0517 1.56565C55.1938 1.56565 55.3358 1.56565 55.6199 1.56565C56.3301 1.56565 56.7563 1.7077 58.7449 2.84406C58.0347 4.40656 56.8983 7.9577 56.6142 9.09406C54.6256 11.2247 52.4949 14.0657 51.3585 16.9066C51.2165 16.7645 50.9324 16.6225 50.7904 16.4804C51.5006 15.202 51.6426 14.3497 51.6426 14.3497C51.6426 14.3497 50.9324 14.7759 50.0801 16.0543C49.9381 16.0543 49.796 15.9122 49.654 15.9122C52.2108 12.077 53.4892 9.5202 53.4892 9.5202C53.4892 9.5202 51.5006 11.6509 48.8017 15.4861C48.5176 15.4861 48.3756 15.3441 48.0915 15.3441C50.0801 12.9293 51.7847 10.7986 52.4949 7.9577C52.779 7.9577 52.779 7.9577 52.779 7.81565ZM47.0972 15.3441C46.671 15.3441 46.387 15.3441 45.9608 15.3441C44.8245 15.3441 43.8301 15.4861 42.8358 16.0543C42.8358 15.7702 42.8358 14.9179 42.6938 14.7759C44.5404 11.7929 48.2335 10.9407 51.2165 9.23611C50.5063 10.5145 49.9381 11.6509 47.0972 15.3441ZM41.8415 12.6452C43.1199 12.2191 51.7847 6.82133 52.2108 6.3952C52.2108 6.53724 52.0688 6.53724 52.0688 6.67929C52.0688 6.82133 52.0688 6.96338 52.0688 6.96338C52.0688 7.10542 51.9267 7.24747 51.9267 7.38951C51.9267 7.53156 51.7847 7.67361 51.7847 7.67361C45.2506 10.6566 43.1199 12.2191 42.4097 13.6395C42.2676 13.0713 41.8415 12.6452 41.4154 12.3611C41.5574 12.5032 41.8415 12.6452 41.8415 12.6452ZM16.4154 43.4691C17.5517 40.3441 15.421 12.2191 37.4381 12.2191C39.0006 12.2191 40.137 12.5032 40.7051 12.7872L41.2733 13.2134C41.2733 13.2134 39.8529 13.9236 37.7222 15.4861C34.5972 15.7702 32.0404 15.6282 29.0574 15.3441C31.6142 16.0543 34.171 16.3384 36.8699 16.1963C36.1597 16.7645 35.1654 17.6168 33.6029 19.0372C29.7676 19.7475 27.0688 20.0316 23.9438 20.4577C24.2279 20.4577 24.512 20.4577 24.796 20.4577C26.6426 20.4577 29.6256 20.3157 32.6085 19.8895C31.3301 21.1679 30.0517 22.4463 28.7733 23.8668V23.7247C23.3756 24.577 20.3926 25.4293 20.3926 25.4293C20.3926 25.4293 23.3756 25.2872 28.3472 24.435C26.9267 26.1395 25.7904 27.702 24.2279 29.9747C22.2392 30.685 20.1085 31.2532 17.9779 31.6793C18.1199 31.6793 18.404 31.6793 18.546 31.6793C19.8245 31.6793 21.671 31.3952 23.5176 30.827C20.8188 35.0884 18.1199 41.3384 18.6881 41.3384C18.6881 41.3384 20.8188 36.3668 23.8017 31.5372C23.6597 33.952 23.8017 36.0827 24.3699 38.3554C24.3699 37.2191 24.2279 36.0827 24.2279 35.0884C24.2279 33.5259 24.3699 32.1054 24.512 30.4009C26.0745 27.9861 27.3529 26.4236 28.7733 24.7191C28.7733 25.4293 28.7733 26.1395 28.7733 26.8497C28.7733 28.8384 28.9154 30.5429 29.0574 31.8213C29.1995 33.2418 29.4835 34.2361 29.4835 34.8043C29.4835 33.81 29.3415 32.9577 29.3415 31.8213C29.3415 31.1111 29.3415 30.2588 29.3415 29.2645C29.3415 27.702 29.3415 25.9975 29.4835 24.0088C30.904 22.4463 32.3245 21.0259 33.887 19.6054C33.6029 21.31 33.6029 22.8725 33.6029 24.1509C33.6029 25.4293 33.7449 26.4236 33.7449 27.4179C33.887 28.4122 34.029 29.2645 34.171 29.6907C34.171 29.1225 34.029 28.4122 34.029 27.4179C34.029 26.9918 34.029 26.5657 34.029 26.1395C34.029 24.2929 34.171 21.8782 34.7392 18.8952C35.8756 18.0429 37.012 17.1907 38.1483 16.3384C38.1483 16.7645 38.1483 17.3327 38.1483 17.7588C38.1483 20.1736 38.4324 22.3043 39.0006 24.435C39.0006 24.435 39.0006 24.2929 39.0006 23.8668C38.8585 22.3043 38.7165 20.8838 38.7165 19.3213C38.7165 18.185 38.7165 17.0486 38.8585 15.7702C40.7051 14.4918 41.4154 13.7816 41.4154 13.7816C41.4154 13.7816 41.6995 15.6282 41.6995 15.7702C41.6995 16.0543 41.6995 16.3384 41.6995 16.6225C41.6995 19.6054 40.7051 22.8725 39.5688 25.4293C33.7449 39.7759 21.529 39.0657 16.4154 43.4691ZM32.0404 96.7361C17.8358 96.7361 6.33013 86.0827 6.33013 71.31C6.33013 57.1054 16.1313 52.4179 23.8017 40.9122C24.3699 40.6282 24.9381 40.4861 25.5063 40.202C23.9438 42.1907 22.9495 43.7532 22.0972 45.0316C21.2449 46.452 20.8188 47.3043 20.8188 47.3043C20.8188 47.3043 21.387 46.5941 22.5233 45.3157C22.6654 45.1736 27.2108 39.7759 26.9267 39.6338C28.2051 39.0657 29.4835 38.3554 30.904 37.5032C26.6426 42.3327 24.3699 45.3157 24.3699 45.3157L34.171 35.2304C39.5688 30.827 42.5517 23.8668 42.6938 16.7645C43.6881 16.4804 44.6824 16.3384 45.5347 16.3384C48.2335 16.3384 50.7904 17.4747 52.921 19.4634C52.637 19.1793 50.2222 20.4577 49.796 20.7418C49.0858 21.31 49.654 22.4463 49.9381 23.2986C44.1142 24.8611 42.8358 31.6793 42.4097 36.935C40.5631 59.0941 38.4324 60.9406 38.4324 70.4577C38.4324 76.7077 39.7108 82.6736 42.9779 87.7872C41.5574 88.7816 40.137 89.4918 39.2847 89.9179C38.8585 90.202 38.4324 90.3441 38.1483 90.4861C37.8642 90.6281 37.7222 90.6282 37.7222 90.6282C37.7222 90.6282 37.8642 90.6282 38.1483 90.6282C38.4324 90.6282 38.8585 90.4861 39.4267 90.3441C40.421 90.06 41.8415 89.4918 43.546 88.4975C43.6881 88.6395 43.8301 88.7816 43.8301 88.9236C40.8472 91.1963 37.8642 92.1906 35.8756 92.7588C34.8813 93.0429 34.029 93.185 33.4608 93.327C32.8926 93.4691 32.6085 93.4691 32.6085 93.4691C32.6085 93.4691 32.8926 93.4691 33.4608 93.4691C34.029 93.4691 34.8813 93.4691 36.0176 93.327C39.1426 92.9009 41.9835 91.6225 44.3983 89.7759C44.5404 89.9179 44.6824 90.202 44.9665 90.3441C41.1313 93.185 36.4438 94.7475 31.4722 94.7475C31.046 94.7475 30.762 94.7475 30.3358 94.7475C28.4892 94.6054 27.0688 94.3213 26.2165 94.1793C25.2222 93.8952 24.796 93.7532 24.796 93.7532C24.796 93.7532 25.2222 93.8952 26.2165 94.3213C27.0688 94.6054 28.4892 95.0316 30.3358 95.1736C31.046 95.3157 31.7563 95.3156 32.6085 95.3156C34.029 95.3156 35.4494 95.1736 37.154 94.8895C39.8529 94.3213 42.8358 93.185 45.5347 91.0543L45.3926 90.7702C45.5347 90.9122 45.6767 91.0543 45.8188 91.1963C41.8415 94.6054 37.4381 96.7361 32.0404 96.7361ZM39.5688 68.7531C39.5688 63.7816 40.5631 60.5145 41.5574 55.685C44.6824 39.3497 40.8472 31.2532 47.9495 25.5713C47.0972 26.2816 46.671 27.1338 46.387 28.1282C46.671 27.702 46.9551 27.1338 47.5233 26.5657C48.3756 25.8554 49.3699 25.2872 50.5063 25.0032C49.3699 25.5713 48.6597 26.4236 48.2335 27.2759C49.2279 26.2816 50.0801 25.7134 51.5006 25.4293C47.2392 27.4179 48.8017 35.0884 48.8017 43.4691C48.8017 46.5941 48.3756 54.2645 48.3756 60.2304C48.3756 76.9918 51.9267 94.0372 67.8358 99.2929C50.2222 97.7304 39.5688 87.5031 39.5688 68.7531ZM74.796 98.8668C63.1483 98.8668 49.512 89.9179 49.512 57.8156C49.512 49.577 49.3699 41.3384 49.9381 33.0997C50.0801 31.1111 49.9381 26.9918 52.0688 25.8554C52.4949 25.5713 53.0631 25.5713 53.6313 25.5713C54.0574 25.5713 54.4835 25.5713 54.9097 25.5713C56.7563 25.2872 58.1767 23.0145 60.1654 23.1566C61.7279 23.2986 63.2904 24.7191 64.4267 25.7134C67.2676 28.4122 69.3983 31.8213 71.3869 35.0884C71.3869 35.0884 71.3869 35.2304 71.529 35.2304C82.1824 52.9861 93.8301 63.7816 93.8301 78.6963C93.8301 90.7702 85.5915 98.8668 74.796 98.8668Z" fill="#C2975D"/>
</svg>
