<svg width="44" height="44" viewBox="0 0 44 44" fill="none" xmlns="http://www.w3.org/2000/svg">
<path d="M1.55699 7.75297C1.39942 7.75741 1.24413 7.82184 1.12873 7.94612C1.04591 8.03531 0.994474 8.14293 0.973373 8.25475C0.972993 8.25655 0.972523 8.25832 0.972159 8.26012C0.970676 8.26838 0.969492 8.27663 0.968345 8.28492C0.963338 8.31635 0.960022 8.34835 0.960022 8.38115V35.6347C0.960022 35.972 1.23526 36.2472 1.5726 36.2472H43.3406C43.678 36.2472 43.9532 35.972 43.9532 35.6258V8.45883C43.9791 8.27922 43.9262 8.08918 43.7933 7.94612C43.6401 7.78115 43.4166 7.72239 43.2109 7.76858H1.71113C1.66039 7.75718 1.60858 7.75152 1.55699 7.75297ZM3.14157 8.99372H41.7803L27.7164 22.212C27.6912 22.2356 27.6656 22.2586 27.6402 22.2819L27.6398 22.282C27.5951 22.3118 27.5542 22.3488 27.5176 22.3914C24.6215 24.9239 20.2893 24.9215 17.396 22.384C17.3672 22.3527 17.3358 22.3249 17.3025 22.3008C17.2701 22.2714 17.2376 22.242 17.2056 22.212L3.14157 8.99372ZM2.18517 9.78419L16.0056 22.7736L2.18517 34.3173V9.78419ZM42.7192 9.80066V34.31L28.9123 22.7776L42.7192 9.80066ZM27.9868 23.598L41.6534 35.0133H3.26952L16.9393 23.6032C18.506 24.8357 20.4518 25.5145 22.4609 25.5145C24.4728 25.5145 26.4142 24.8337 27.9868 23.598Z" fill="black"/>
</svg>
