<svg width="114" height="96" viewBox="0 0 114 96" fill="none" xmlns="http://www.w3.org/2000/svg">
<path d="M60.2943 0.579464C58.4406 0.588218 56.695 0.755094 55.3468 0.965194C51.425 1.52546 46.9426 2.99561 44.2113 6.00705C43.9311 6.28718 43.721 6.63762 43.5109 6.98779C42.6705 4.88679 40.36 3.83683 38.1189 3.69677C34.2671 3.5567 30.1351 6.91748 27.2637 9.15854C24.3223 11.4696 22.011 14.1315 21.0305 17.7732C20.8904 18.3335 20.6103 19.1035 20.6803 19.5938C19.2797 19.4537 18.1583 18.8229 16.6876 19.033C15.287 19.173 14.0274 19.7344 12.9069 20.5048C10.5958 22.0455 8.84471 24.4956 8.07434 27.0868C7.16391 29.8181 7.65441 32.3396 8.35475 35.0709C8.70491 36.4015 8.42369 36.4718 7.23312 37.1021C6.32269 37.5923 5.48256 38.1526 4.7122 38.8529C1.70076 41.5142 0.160303 45.5058 0.790603 49.4277C1.28084 52.4391 2.68123 55.3113 4.7122 57.6224C5.69266 58.743 6.60309 59.2324 7.86369 59.9327C9.47446 60.7731 10.8751 62.1037 12.4159 63.0842C13.0427 63.4801 13.6749 63.8643 14.3048 64.2537C14.3064 64.2842 14.3002 64.316 14.3076 64.3453C14.3828 64.3579 14.4667 64.3844 14.5456 64.4014C19.1863 67.2641 23.8805 70.0019 28.3142 73.0995C29.995 74.22 31.6753 75.4109 33.3561 76.5314C31.8854 78.4223 30.7649 80.3824 30.5548 83.0437C30.4147 84.8646 30.8352 86.8255 31.1853 88.6464C31.3954 89.6969 31.3946 91.7275 32.0949 92.5679C32.7953 93.3383 33.0056 93.4083 34.1262 93.2683C36.6474 92.9181 39.2389 92.7091 41.7601 92.2889C46.7324 91.5185 51.7754 90.3977 56.6777 89.2072C56.7478 89.2072 56.8867 89.1363 56.9568 89.0663C57.0268 89.0663 57.0974 89.1374 57.1674 89.1374C57.3075 89.2775 57.3775 89.4175 57.5176 89.4876C57.7277 89.4876 58.0078 89.4862 58.2179 89.4164H58.4983C58.7785 89.3464 59.0578 89.347 59.4079 89.2769C63.5399 90.8177 67.9528 91.4477 72.1548 92.8484C75.3764 93.9689 78.0368 96.91 80.7681 93.6184C82.8691 91.0272 85.1102 88.5766 84.6199 85.0749C84.3398 83.114 82.7993 81.4326 81.0485 80.6623C81.2586 80.5222 81.5387 80.4522 81.7488 80.3121C88.6121 77.1606 95.8255 74.8503 102.759 71.6988C107.451 69.5978 111.793 65.8152 113.264 60.7028C114.524 56.7109 112.634 51.5295 108.642 49.9188C107.872 49.5686 107.031 49.4282 106.26 49.2882C106.681 48.938 106.961 48.5173 107.171 48.027C112.284 41.4439 110.673 31.8502 105.14 26.1074C102.969 23.8664 99.0471 21.6253 95.7555 22.6058C100.728 16.723 90.503 9.36892 85.2505 7.33795C81.8189 6.07735 75.3058 4.53607 72.2943 7.47747C72.1543 7.61754 72.084 7.68757 72.0139 7.82764C72.3816 1.94484 65.8554 0.553201 60.2943 0.579464ZM60.1739 2.31115C62.4325 2.27832 64.7316 2.54012 66.8326 3.27547C68.0231 3.69567 69.774 4.53607 70.3342 5.72664C71.2447 7.7576 69.7039 11.1892 68.9336 13.0801C67.6029 16.0916 66.832 19.3134 65.9216 22.4649C65.4519 24.0072 65.0084 25.5537 64.5797 27.1018C60.4869 20.4449 51.1737 19.5786 45.9457 25.4372C45.7571 24.4028 45.5748 23.3662 45.4013 22.3254C44.7009 18.0533 43.5807 13.0109 44.6312 8.66886C45.7517 4.04666 54.0156 2.78579 57.9375 2.43562C58.6729 2.36559 59.4211 2.32209 60.1739 2.31115ZM38.0478 6.07681C40.1488 6.14684 42.11 7.47747 42.5302 9.57847C42.7403 10.769 42.5299 12.0999 42.5999 13.3605C42.74 14.8312 42.9507 16.3028 43.1608 17.7034C43.5839 20.5095 44.083 23.2992 44.623 26.0814C37.6813 21.0461 28.0053 25.7783 27.9682 34.5101C24.3338 29.3363 21.1402 23.8153 22.6404 17.2821C23.6209 13.0801 27.8938 9.6485 31.5355 7.82764C33.4964 6.84717 35.7367 6.07681 38.0478 6.07681ZM78.2089 7.74557C82.0656 7.781 86.0567 9.35141 89.2432 11.1898C91.6944 12.5905 93.8649 14.9719 94.6352 17.7732C95.5457 20.9947 93.5853 23.8653 91.3442 26.0363C90.784 26.5966 90.2234 27.0176 89.6632 27.5779C89.243 27.9981 88.8931 28.4886 88.5429 28.9088C87.2823 30.5896 86.3016 32.3398 85.111 33.9506C84.7185 34.4553 84.3373 34.9652 83.9634 35.4799C83.4059 34.5617 83.2907 33.444 82.8691 32.4802C82.4489 31.3597 81.8186 30.3786 81.1183 29.4682C79.6476 27.6473 77.7578 26.2475 75.5867 25.4071C73.2056 24.4967 70.4037 24.7765 68.0226 25.4769C67.4464 25.6463 66.8876 25.8998 66.3442 26.1936C66.9671 24.3309 67.6187 22.4793 68.303 20.6443C69.8437 16.4423 71.4537 8.38791 76.5661 7.82764C77.1089 7.76636 77.6579 7.74051 78.2089 7.74557ZM17.5726 20.5827C18.1416 20.5565 18.6847 20.679 19.2099 21.0642C20.2604 21.8346 20.8207 23.166 21.3109 24.3566C21.8712 25.7573 22.711 27.1579 23.2013 28.5586C23.8933 30.6694 24.9287 32.5914 26.1189 34.4444C23.6791 34.4841 21.4536 35.7813 19.7694 37.8024C17.3793 40.6705 17.5251 44.8653 18.3126 48.384C14.5248 44.6343 10.896 39.8583 9.96469 34.5812C9.68456 32.9704 9.68511 31.3594 9.82517 29.7486C9.89521 28.2779 10.105 26.8772 10.5953 25.5466C11.5057 23.2355 13.4669 21.6948 15.778 20.9944C16.4083 20.7843 17.0036 20.609 17.5726 20.5827ZM54.0775 22.8123C54.3133 22.8057 54.5497 22.8063 54.786 22.815C58.7219 23.0222 62.2465 25.4102 64.09 28.9005C63.828 29.8854 63.5747 30.8719 63.3295 31.8592C62.976 31.8356 62.6968 31.7523 62.5594 31.5692C58.6394 26.2539 51.2586 26.8703 47.0427 31.1329C46.7438 29.6268 46.4487 28.1174 46.1673 26.6122C47.3566 25.561 49.1327 24.2504 49.394 24.0762C50.8034 23.2796 52.4268 22.8583 54.0775 22.8123ZM97.9057 24.9147C98.8236 24.9409 99.7646 25.1612 100.728 25.6164C105.35 27.7874 107.591 32.6197 107.942 37.522C108.082 39.9732 107.732 42.4246 107.102 44.8058C106.401 47.327 103.809 49.0773 101.358 49.8476C99.1907 50.5701 97.1994 51.6052 95.2097 52.7351C97.5638 49.4606 97.271 45.2521 95.1961 41.7938C93.3052 38.7123 89.1721 36.4015 85.6705 35.7712C85.5143 35.7489 85.3592 35.7316 85.2054 35.7206C88.1967 30.9724 92.6375 24.7639 97.9057 24.9147ZM38.4062 25.3319C40.7357 25.4084 43.0242 26.3469 44.9608 27.809C45.2058 29.0286 45.4614 30.2459 45.72 31.4625C39.6556 28.1683 32.2797 31.1263 30.1772 37.6178C29.5603 36.762 28.9474 35.8976 28.3279 35.0257C29.1423 31.524 30.8737 27.8413 34.1262 26.2469C35.5181 25.5641 36.9699 25.2847 38.4062 25.3319ZM71.1645 25.9802C72.849 26.0254 74.606 26.474 76.0067 27.0868C78.0376 28.0673 79.6487 29.6783 80.8392 31.5692C81.736 32.9443 82.9298 34.8796 83.1755 36.5933C82.773 37.1731 82.3776 37.7575 81.9923 38.3496C81.8117 38.3388 81.6349 38.3395 81.4684 38.3633C80.6981 35.8421 78.738 33.8811 76.3568 32.7606C73.7656 31.5 70.404 31.2891 67.6027 31.219C67.0934 31.219 65.7791 31.585 64.6044 31.7662C65.0325 30.2951 65.4782 28.8311 65.9517 27.3768C66.9475 26.8853 68.0327 26.4878 68.303 26.3865C69.1697 26.0713 70.1538 25.9531 71.1645 25.9802ZM55.1362 29.0838C58.1301 29.1714 61.089 30.6235 62.8398 33.3898C62.8849 33.4348 62.9057 33.4728 62.9301 33.4992C60.1039 45.3527 58.5012 57.3877 58.2877 69.6676C58.2176 72.3989 57.8683 75.0599 58.0784 77.7912C58.0084 78.5616 58.5675 82.4131 57.3069 82.7633H57.1674C56.1169 74.8495 54.0862 66.9368 52.5455 59.0231C50.9347 50.9693 49.3934 42.9154 47.7827 34.8616C47.6429 34.1625 47.5088 33.4715 47.3696 32.7756C49.268 30.2153 52.2168 28.9985 55.1362 29.0838ZM40.2883 31.3517C42.2172 31.3194 44.2267 31.8872 46.0879 33.1477C46.8658 36.7358 47.675 40.3165 48.483 43.8948C50.3739 52.5089 52.1256 61.193 53.8764 69.8071C54.7168 74.0091 55.7665 78.2111 56.1867 82.4131C56.2567 82.7633 56.1867 83.2538 55.8365 83.3939C55.2062 83.604 53.6658 80.3827 53.3156 79.8224C52.125 77.9315 51.0751 75.9006 50.0246 73.8696C47.1532 68.1969 44.4208 62.4539 41.5494 56.7812C38.8882 51.4587 35.9471 46.2765 32.7255 41.3041C32.2503 40.5625 31.739 39.8185 31.2141 39.0718C32.2439 34.3478 36.0695 31.4225 40.2883 31.3517ZM67.7422 32.4802C69.3529 32.4802 70.964 32.9699 72.5747 32.9699C76.4671 33.5537 79.4561 36.0626 81.2674 39.4904C81.1952 39.6054 81.1202 39.7182 81.0485 39.8337C78.5273 43.7555 76.2868 47.7477 73.9057 51.6696C70.6141 57.1322 67.5326 62.7346 64.8013 68.5473C63.4707 71.4887 62.1398 74.4296 61.0193 77.441C60.529 79.1218 60.2492 81.5035 59.1987 82.9042C58.8485 82.7641 58.7776 82.4842 58.7076 82.1341C58.0773 77.5819 58.7079 72.6085 58.988 68.0563C59.2681 63.0839 59.8281 58.0426 60.4584 53.0703C61.3689 46.4871 62.4199 39.6933 64.1708 33.2503C64.1761 33.2311 64.1818 33.212 64.1872 33.1928C65.3357 32.7949 66.4336 32.4257 67.7422 32.4802ZM25.8631 35.7014C26.3126 35.7014 26.7016 35.7997 27.0846 35.8929C27.6289 36.6816 28.1962 37.466 28.7656 38.2497C23.8704 37.8526 21.015 46.6307 20.8199 50.3387C20.8097 50.4857 20.7949 50.5899 20.7816 50.7094C20.4438 50.3995 20.1033 50.0922 19.7694 49.7779C19.549 49.5756 19.3283 49.3542 19.1073 49.1446C18.8947 47.907 18.9789 45.9999 18.9295 45.5061C18.7894 43.3351 19.1391 41.2338 20.1195 39.2729C20.8199 37.8722 22.0807 36.7514 23.5514 36.1911C24.2518 35.911 25.0927 35.7715 25.8631 35.7014ZM85.2505 37.0324H87.0711C89.032 37.0324 91.6233 39.4838 93.0239 40.8144C94.9849 42.7053 95.8958 45.5761 95.6857 48.3074C95.6157 49.7081 95.1255 50.8286 94.6352 52.1593C94.3914 52.8908 94.2585 52.9786 94.5258 53.1291C94.2356 53.2966 93.946 53.4597 93.6545 53.6297C93.2478 53.877 92.8456 54.1348 92.4399 54.3847C92.1773 54.3731 91.9917 54.4125 91.9734 54.5407C92.6738 50.969 91.9037 47.1171 90.1528 44.0357C89.3124 42.565 87.9815 40.6735 86.3708 39.9732C85.555 39.6297 84.45 39.0256 83.3779 38.656C83.3954 38.6282 83.4125 38.6003 83.4299 38.5725C83.7059 38.1286 84.0362 37.5913 84.3573 37.0693C84.6387 37.0393 84.9309 37.0324 85.2505 37.0324ZM28.9229 39.5875C29.2617 39.6177 29.6087 39.7283 29.9598 39.898C29.9948 39.9467 30.0301 39.9941 30.0651 40.043C33.9169 45.5756 37.2079 51.4589 40.3594 57.4118C43.3008 63.0144 46.1027 68.7577 48.9741 74.4304C49.9545 76.3213 50.9342 78.1411 51.9847 79.962C52.5449 80.8724 53.1052 81.7831 53.7355 82.6935C53.8756 82.8336 54.856 84.3046 54.786 84.3746C53.1052 83.7443 51.4944 81.2937 50.2338 80.0331C48.413 78.1422 46.6627 76.2505 44.8418 74.2895C41.3402 70.5077 37.9088 66.6564 34.2671 62.9447C30.5254 59.0879 26.3604 55.7008 22.3505 52.1292C22.1691 49.8816 22.4484 47.7617 23.1315 45.5759C23.8669 43.3698 26.1567 39.3404 28.9229 39.5875ZM7.12096 39.6066C7.90309 39.6046 8.67756 39.7196 9.33412 39.9034C11.3651 40.3937 12.4862 42.8451 13.7468 44.3858C15.0146 45.8884 16.3512 47.354 17.745 48.7725C15.617 49.2282 13.7486 50.6892 13.0464 52.8596C11.8475 56.204 12.8123 59.4902 14.1927 62.5672C10.4336 60.3138 6.69143 57.9516 3.73146 54.75C1.42036 52.4389 1.07128 48.5876 1.70158 45.5061C1.98172 43.9654 2.54116 42.005 3.6617 40.8144C4.49334 39.939 5.81741 39.61 7.12096 39.6066ZM82.9402 39.8337C85.7416 39.6236 88.6118 43.1244 89.8724 45.2955C91.5387 48.1615 92.186 52.4206 90.6753 55.4818C86.5184 58.0962 82.4298 60.8569 78.5276 63.8543C74.0454 67.356 69.8429 71.2778 66.4113 75.76C64.4503 78.2812 63.2606 81.8534 60.9495 84.0244L60.8086 84.1639C60.7386 84.234 60.5996 84.2351 60.5296 84.2351C60.3195 84.165 60.3189 83.8149 60.3189 83.5347C60.6691 81.7839 61.2291 80.5933 61.7893 78.9826C62.8398 75.9711 64.0301 73.0287 65.3608 70.1573C68.022 64.3445 71.1041 58.8119 74.3256 53.3493C76.9955 48.8359 79.7845 44.3825 82.5805 39.9322C82.7134 39.8987 82.9047 39.8514 82.9402 39.8337ZM17.7792 49.7013C18.1261 49.6962 18.4911 49.7608 18.8693 49.8914C19.1914 50.2049 19.5106 50.521 19.8391 50.8284C20.0871 51.0642 20.3453 51.2919 20.5955 51.526C20.3401 52.0755 19.8609 51.9772 18.9295 52.8596C18.0191 53.7 17.2487 54.681 16.8285 55.8716C15.8095 58.9286 16.5325 61.8109 17.6191 64.6257C17.0765 64.2975 16.5297 63.9721 15.9873 63.645C15.5482 63.383 15.108 63.1148 14.6673 62.8517C14.3566 61.8195 14.0786 59.8913 14.0272 59.5825C13.747 58.1118 13.5372 56.5013 13.6072 54.9606C13.778 52.7414 15.3806 49.7359 17.7792 49.7013ZM103.845 50.1677C105.316 50.0933 106.804 50.3387 108.292 51.039C111.023 52.3696 111.863 56.0811 111.863 58.8124C111.863 61.6838 110.042 64.4154 108.011 66.4463C105.459 68.9986 102.182 70.4342 98.7948 71.5963C98.9557 71.3638 99.1339 71.1136 99.2572 70.9287C100.028 69.8082 100.379 68.2664 100.799 67.0058C100.939 66.5856 101.009 66.1665 101.149 65.6762C101.569 64.4156 101.849 63.154 101.919 61.7533C102.114 58.118 99.7787 53.7082 96.0345 52.9704C98.5075 51.5201 101.146 50.3043 103.845 50.1677ZM22.0345 52.8541C25.6649 56.1696 29.4308 59.3811 32.8664 62.8749C36.5782 66.7267 40.079 70.7887 43.5807 74.7806C45.4015 76.8115 47.1529 78.8422 49.0438 80.8032C49.5341 81.3634 53.6658 84.9351 52.9654 85.3553C52.8254 85.4254 52.6856 85.4251 52.5455 85.4251C50.8647 85.3551 49.2531 83.6037 47.8524 82.7633C45.8915 81.5727 43.9314 80.3127 42.0405 79.1221C38.1186 76.6709 34.4071 74.15 30.4152 72.049C26.8055 70.141 23.2776 68.0369 19.7639 65.917C17.9525 61.8203 15.6522 54.5184 21.8704 52.9294C21.9292 52.9147 21.9831 52.8854 22.0345 52.8541ZM95.2152 53.4615C96.9842 54.3295 98.2263 54.504 99.3269 56.3613C100.447 58.1121 100.939 60.4238 100.868 62.5247C100.868 63.2951 100.728 64.0649 100.588 64.7653C100.238 66.236 99.8875 67.7061 99.2572 69.1068C98.8203 70.199 98.2104 71.2045 97.3996 72.0599C96.7841 72.2589 96.1709 72.4577 95.5572 72.6509C95.5551 72.6357 95.5462 72.6245 95.5462 72.6084C95.5462 72.4684 95.6157 72.3994 95.6857 72.3294C97.4366 69.7381 97.9265 67.2167 97.8565 63.9951C97.7865 61.684 97.4369 59.2323 96.3163 57.1313C95.9662 56.501 95.4051 55.5206 94.7748 55.0303C94.6468 54.9344 94.0575 54.727 93.4575 54.5707C94.0308 54.2001 94.6189 53.8272 95.2152 53.4615ZM93.7243 55.4503C94.5647 55.4503 95.126 55.8705 95.5462 56.5008C96.4567 57.6914 96.7368 59.373 96.9469 60.8437C97.087 62.1043 97.0864 63.4349 97.0864 64.6955C97.0864 66.5164 96.6659 68.1266 95.7555 69.7374C95.1748 70.7826 94.1706 71.9739 93.7612 73.2281C93.2555 73.3927 92.7487 73.5566 92.2538 73.7301C86.301 75.8311 80.3487 78.001 74.606 80.6623C71.8047 81.9929 69.0031 83.3936 66.2718 84.8643C65.2913 85.4245 61.4392 87.3863 62.4897 84.655C63.0499 83.1143 63.8912 81.7139 64.7316 80.3832C66.0622 78.1422 67.6018 76.1109 69.2126 74.15C72.154 70.5783 75.5862 67.3562 79.2279 64.4849C83.1498 61.3334 87.2815 58.5318 91.5535 55.8005C91.6144 55.7617 91.6797 55.718 91.7409 55.6787C92.5791 55.5586 93.5297 55.4503 93.7243 55.4503ZM34.3368 77.0211C40.7099 81.2231 47.5034 85.2856 54.5767 88.0869C48.834 88.7172 43.0904 89.5571 37.6279 91.0278C35.9471 91.448 33.2866 92.5679 32.8664 90.1168C32.5863 88.436 32.235 86.8255 32.0949 85.1447C31.7448 82.0632 32.7961 79.5423 34.3368 77.0211ZM79.5083 81.3626C83.3602 82.9734 84.4104 86.3358 82.0292 89.9075C80.9087 91.5883 79.4377 94.739 76.8465 93.2683C75.5859 92.5679 74.3253 91.7979 72.9947 91.0975C70.3334 89.7669 67.3928 88.6464 64.3814 88.2962C69.4238 86.0551 74.4659 83.6737 79.5083 81.3626Z" fill="#C2975D"/>
</svg>
