<svg width="31" height="7" viewBox="0 0 31 7" fill="none" xmlns="http://www.w3.org/2000/svg">
<mask id="mask0_1_68" style="mask-type:alpha" maskUnits="userSpaceOnUse" x="0" y="0" width="31" height="7">
<g clip-path="url(#clip0_1_68)">
<g clip-path="url(#clip1_1_68)">
<path d="M6.20612 4.36599L6.08218 4.35483V4.32137H6.20612V4.36599ZM17.7719 4.89891L17.7359 4.86421C17.7495 4.85306 17.7694 4.82951 17.7768 4.83323C17.7953 4.84582 17.8116 4.8613 17.8251 4.87908L17.7719 4.89891ZM22.8681 6.17546C22.8422 6.17862 22.816 6.17862 22.79 6.17546C22.7814 6.17546 22.7789 6.14695 22.7727 6.13084C22.797 6.12426 22.8219 6.12051 22.847 6.11969C22.8532 6.12217 22.8607 6.15315 22.8681 6.17546ZM18.1511 4.88776H18.0358V4.83942H18.1511V4.88776ZM20.9508 0.745808L21.0562 0.699951L21.0735 0.739611L20.9669 0.784228L20.9508 0.745808ZM18.6704 4.80348L18.6456 4.84686C18.6334 4.83549 18.6222 4.82305 18.6121 4.80968C18.6121 4.80968 18.6221 4.78737 18.6258 4.78861C18.6411 4.79209 18.656 4.79707 18.6704 4.80348ZM29.148 5.55702L29.091 5.52851C29.102 5.50701 29.1157 5.48701 29.1319 5.46902C29.1319 5.46902 29.1752 5.48513 29.1752 5.49009C29.1685 5.5133 29.1594 5.53574 29.148 5.55702ZM12.1427 5.62394L12.1117 5.58924C12.126 5.58245 12.1409 5.57706 12.1563 5.57313C12.1563 5.57313 12.1749 5.58924 12.1737 5.59048C12.164 5.60221 12.1536 5.61338 12.1427 5.62394ZM17.2055 4.94849L17.1447 4.87784C17.165 4.86283 17.1871 4.85035 17.2104 4.84066C17.2179 4.84066 17.2439 4.86669 17.2414 4.87661C17.2323 4.90191 17.2203 4.92605 17.2055 4.94849ZM0.715738 6.0602L0.669882 5.99699C0.692425 5.98394 0.716596 5.97394 0.741765 5.96725C0.75168 5.96725 0.766552 5.98955 0.778946 6.00071L0.715738 6.0602ZM25.0432 5.52603C25.0296 5.49421 25.0196 5.46095 25.0135 5.42688C25.0135 5.41573 25.0407 5.39094 25.0506 5.39342C25.0765 5.40216 25.1011 5.41424 25.1238 5.42936L25.0432 5.52603ZM5.02996 4.33376H5.18984V4.37095L5.02996 4.39077V4.33376ZM23.9017 5.59296L23.8274 5.53595C23.8447 5.51612 23.8596 5.48141 23.8794 5.47894C23.8993 5.47646 23.9253 5.50372 23.9488 5.5186L23.9017 5.59296ZM17.5066 6.31922H17.3108V6.28328L17.5079 6.2585L17.5066 6.31922ZM7.34261 4.45646C7.37961 4.43945 7.41884 4.42777 7.45911 4.42176C7.47523 4.42176 7.4901 4.4577 7.50497 4.47877C7.47693 4.49836 7.44598 4.51342 7.41326 4.52339C7.39839 4.52587 7.37856 4.4924 7.34261 4.45646ZM7.01418 4.33748L6.84315 4.36599L6.83324 4.31146L7.00427 4.28171L7.01418 4.33748ZM18.9121 4.39201C18.8922 4.33872 18.8637 4.29534 18.8736 4.28295C18.8985 4.25975 18.9313 4.2469 18.9654 4.24701C18.979 4.24701 19.0112 4.29534 19.005 4.30526C18.978 4.3381 18.9467 4.36727 18.9121 4.39201ZM7.69087 4.41804L7.84456 4.43291V4.48001L7.68716 4.48868L7.69087 4.41804ZM12.507 5.56197L12.7264 5.53595L12.7338 5.60163L12.5145 5.62766L12.507 5.56197ZM8.53116 4.44655H8.29816V4.37095L8.54604 4.35483L8.53116 4.44655ZM8.18414 5.63386L7.97841 5.64501L7.96725 5.57685L8.16555 5.52975L8.18414 5.63386ZM25.9008 5.7739C25.9559 5.73659 26.0193 5.71344 26.0855 5.70652C26.1516 5.6996 26.2185 5.70913 26.2801 5.73424C26.1363 5.83463 26.0149 5.76647 25.8996 5.77019L25.9008 5.7739ZM8.85588 5.57932L8.58817 5.6289C8.70591 5.51364 8.70591 5.51364 8.83605 5.5186L8.85588 5.57932ZM5.86653 4.47629L6.17761 4.4924C6.02021 4.58783 6.02021 4.58783 5.86653 4.47629ZM1.43581 4.95345L1.10366 4.97204C1.24371 4.86545 1.24371 4.86545 1.43581 4.95345ZM8.45556 4.78241L8.79887 4.72912C8.62659 4.89148 8.62659 4.89148 8.45556 4.78241ZM17.8363 5.68839C17.7124 5.77638 17.643 5.77514 17.5686 5.66732C17.6554 5.56941 17.731 5.57313 17.8363 5.68839ZM27.7227 5.71194C27.7723 5.60287 27.8466 5.53099 28.0487 5.588L27.7698 5.78134L27.7227 5.71194ZM22.5149 6.15315L21.8779 6.16678V6.10357L22.5149 6.09118V6.15315ZM1.29576 3.85041L0.721935 3.88759V3.80827L1.29576 3.77109V3.85041ZM5.31378 6.11597C5.25381 6.15681 5.18362 6.18008 5.11114 6.18315C5.03865 6.18621 4.96675 6.16896 4.90355 6.13332V6.06763L5.31006 6.03541L5.31378 6.11597ZM27.0064 6.06392C26.8824 6.20396 26.7176 6.18785 26.5565 6.16059C26.6891 6.0478 26.849 6.05772 27.0064 6.06392ZM6.3883 4.46266H6.87661C6.71302 4.55065 6.54942 4.6089 6.38087 4.52463L6.3883 4.46266ZM9.7854 4.36847L9.22768 4.41804L9.22149 4.35607C9.39765 4.28255 9.5912 4.26105 9.7792 4.2941L9.7854 4.36847ZM2.70987 5.34261C2.76648 5.33 2.82417 5.32295 2.88215 5.32154C3.06746 5.33028 3.25121 5.35979 3.42994 5.40953C3.19199 5.40953 2.95279 5.4021 2.71483 5.3959C2.71208 5.37825 2.71042 5.36046 2.70987 5.34261ZM5.29395 6.64889C5.19679 6.69051 5.09074 6.7071 4.98552 6.69714C4.88029 6.68718 4.77924 6.65099 4.69162 6.59188L5.29395 6.64889ZM13.4787 5.55454C13.3176 5.7107 13.1515 5.63386 12.9173 5.59172C12.9994 5.53691 13.0945 5.50463 13.193 5.4981C13.2915 5.49158 13.3901 5.51104 13.4787 5.55454ZM2.55371 4.84686L3.48943 4.77622C3.32708 4.92866 2.9627 4.97328 2.55371 4.84686ZM24.7346 5.48018C24.5338 5.54958 24.338 5.64873 24.1087 5.55206C24.0777 5.41945 24.1496 5.38103 24.2649 5.37855L24.7519 5.36491L24.7309 5.48885L24.7346 5.48018ZM15.044 5.54338C14.7731 5.65004 14.4727 5.65445 14.1988 5.55578C14.3847 5.41945 14.8048 5.4021 15.044 5.54338ZM16.9117 5.5124C16.6304 5.71194 16.3726 5.62766 16.0764 5.56817C16.2685 5.40953 16.6428 5.39838 16.9117 5.5124ZM3.29485 5.60411C2.93832 5.72026 2.55598 5.73187 2.19306 5.63757C2.55743 5.4653 2.92676 5.54834 3.29485 5.60411ZM2.462 1.64559L0.983441 1.74102C1.279 1.58828 1.61363 1.52783 1.94395 1.56751C2.11747 1.58203 2.29168 1.58658 2.46572 1.58114L2.462 1.64559ZM0.813648 5.68715C1.18546 5.43928 1.5647 5.57437 1.94147 5.66484C1.56718 5.72557 1.19289 5.78134 0.813648 5.68715ZM17.8921 5.7045C17.9999 5.64625 18.0532 5.59296 18.1077 5.59048C18.4394 5.58011 18.7714 5.60086 19.0992 5.65245C18.8873 5.79373 18.2391 5.81976 17.8921 5.7045ZM23.0838 6.14571C23.7233 6.1643 24.3616 5.99575 25.0011 6.1296C24.3654 6.21828 23.7208 6.22369 23.0838 6.14571ZM4.71269 6.05276C4.67674 6.09118 4.66435 6.11597 4.65196 6.11597C4.40408 6.11597 4.15621 6.12712 3.90834 6.11597C3.53108 6.0885 3.15548 6.04175 2.783 5.97592C2.98253 5.90652 3.18703 5.9437 3.39028 5.95485C3.61709 5.96725 3.84513 5.97592 4.07193 5.99203C4.27767 6.0069 4.48464 6.02921 4.71269 6.05276ZM1.18546 6.07259C1.56444 5.93067 1.9784 5.91116 2.36905 6.01682C2.2005 6.2114 1.96626 6.2114 1.18546 6.07259ZM17.726 4.40069C17.8016 4.33748 17.8747 4.22718 17.9553 4.22222C18.1293 4.21802 18.3032 4.23719 18.4721 4.27923C18.5688 4.31812 18.66 4.36936 18.7435 4.43167C18.3816 4.6151 18.0705 4.46142 17.7681 4.49612L17.726 4.40069ZM9.02567 5.55206C9.60685 5.41035 10.2035 5.34207 10.8017 5.3488L10.819 5.41697C10.7692 5.45099 10.7138 5.47614 10.6554 5.49133C10.1361 5.52603 9.61685 5.55454 9.09755 5.5818C9.074 5.58428 9.04922 5.56321 9.02567 5.55206ZM20.8244 5.82472L21.4974 5.75655C21.5365 5.75381 21.575 5.74503 21.6114 5.73053C21.6762 5.68797 21.7462 5.65382 21.8196 5.6289C21.9667 5.60952 22.115 5.60164 22.2633 5.60535C22.3833 5.60621 22.5022 5.62716 22.6153 5.66732C22.3674 5.90032 22.0365 5.84331 21.7477 5.87801C21.459 5.91271 21.1256 6.02921 20.8244 5.82472ZM21.7068 5.2038C21.7518 5.17685 21.8014 5.15837 21.8531 5.14927C22.4728 5.16662 23.0924 5.19016 23.7121 5.24222C23.5237 5.38103 23.3564 5.4653 23.0999 5.36615C22.8731 5.28312 22.6041 5.3203 22.3488 5.30914C22.1394 5.29923 21.9299 5.29551 21.7205 5.29055L21.7068 5.2038ZM24.7296 5.48389C24.9143 5.70202 25.1622 5.72309 25.42 5.69582C25.5841 5.6674 25.753 5.6949 25.8996 5.7739C25.8442 5.79377 25.7869 5.8079 25.7286 5.81604C25.1783 5.83959 24.6268 5.86686 24.0753 5.87553C23.9749 5.87553 23.872 5.79373 23.7716 5.7516L23.789 5.67723C23.8819 5.67723 23.9749 5.66236 24.0691 5.6636C24.2265 5.6636 24.3851 5.67847 24.5425 5.67971C24.6664 5.67971 24.7544 5.63262 24.7371 5.48513L24.7296 5.48389ZM8.13333 4.90635C8.05789 4.94249 7.97843 4.96954 7.89661 4.98691C7.6706 5.01107 7.44349 5.02348 7.2162 5.02409C6.82084 5.02409 6.42549 4.99187 6.03137 4.99187C5.87443 5.00523 5.71867 5.03008 5.56537 5.06623C5.37079 5.09597 5.17497 5.1282 4.97915 5.14307C4.89983 5.14307 4.79324 5.16042 4.7573 5.01913C4.91552 4.92607 5.09684 4.87967 5.28031 4.88528C5.43797 4.90372 5.59653 4.85918 5.72153 4.76134C5.91115 4.60642 6.14167 4.63741 6.34121 4.72045C6.66592 4.84438 6.97824 4.82455 7.31411 4.7725C7.57066 4.73284 7.84703 4.81092 8.1135 4.83571L8.13333 4.90635ZM6.1615 4.85182C6.11688 4.80472 6.10201 4.77993 6.09334 4.78117C6.06693 4.78884 6.04155 4.79966 6.01773 4.8134L6.1615 4.85182ZM11.4585 4.99558C11.3516 4.9636 11.2422 4.9408 11.1313 4.92742C10.8165 4.91998 10.4993 4.95592 10.2031 4.80348C10.1183 4.77959 10.0291 4.77619 9.9428 4.79357C9.69493 4.80472 9.44705 4.82207 9.19918 4.83075C9.14016 4.82273 9.08206 4.80903 9.02567 4.78985C9.08571 4.69595 9.17651 4.62583 9.28253 4.59147C9.38856 4.55711 9.50322 4.56064 9.60693 4.60147C9.82878 4.67087 10.0729 4.7254 10.2824 4.53206C10.3254 4.50948 10.3743 4.50082 10.4224 4.50728C10.5464 4.50728 10.6591 4.50728 10.7757 4.51719C11.5564 4.58164 12.336 4.49488 13.1156 4.5048C13.4098 4.5244 13.7028 4.56039 13.993 4.61262C14.1393 4.63121 14.2868 4.64608 14.433 4.6622C14.507 4.66354 14.5783 4.69023 14.635 4.7378C14.5698 4.76242 14.502 4.77988 14.433 4.78985C13.594 4.81836 12.7537 4.83942 11.9146 4.86793C11.7424 4.87661 11.5515 4.8481 11.4585 4.99558ZM11.0025 5.39838C11.1983 5.29799 11.4189 5.31658 11.6296 5.30543C13.4081 5.21247 14.345 5.20256 15.2448 5.16786C15.6079 5.15298 16.0169 5.09473 16.3677 5.10341C16.9873 5.11704 17.6157 5.17033 18.2354 5.13811C18.7388 5.12338 19.2427 5.13538 19.7449 5.17405C20.0994 5.19264 20.4563 5.14927 20.812 5.14183C21.0599 5.14183 21.2966 5.14183 21.5978 5.15174C21.5467 5.20933 21.4822 5.25346 21.41 5.28026C21.3378 5.30706 21.2601 5.3157 21.1838 5.30543C20.4836 5.30543 18.9418 5.28188 18.1325 5.28312C17.8958 5.28312 17.6591 5.31286 17.4211 5.32154C16.8882 5.34137 16.3553 5.35624 15.7926 5.37483L15.8744 5.53595C15.5286 5.67104 15.4617 5.65121 15.4319 5.36987C12.6458 5.41201 13.8009 5.38722 11.0099 5.46282L11.0025 5.39838ZM29.8135 3.72772L30.7926 3.94336C30.3976 4.14982 29.9669 4.27935 29.5235 4.32509L29.4516 4.59279L29.785 4.57544C29.7416 4.71425 29.6412 4.68946 29.5644 4.69938C29.4516 4.71921 29.402 4.77126 29.5173 4.93238C29.169 4.71797 28.8666 4.83199 28.5704 4.87165C28.4812 4.8828 28.4044 4.97947 28.3226 5.03772L28.3498 5.10341C28.7415 5.06747 29.1343 5.0402 29.5235 4.99435C29.8569 4.95469 30.1878 4.8952 30.515 4.83942C30.6532 4.81715 30.7949 4.8453 30.9141 4.91874C30.8506 4.97611 30.7826 5.02833 30.7108 5.0749C30.5385 5.16538 30.339 5.19884 30.225 5.3897C30.2089 5.41697 30.1581 5.43184 30.1196 5.43804C29.9151 5.47646 29.7106 5.5062 29.5061 5.5471C29.3698 5.57437 29.3029 5.51736 29.2979 5.38846C28.8877 5.38846 28.4923 5.38846 28.097 5.40829C27.3658 5.43556 26.6345 5.47274 25.9046 5.50372C25.8153 5.51835 25.7237 5.50764 25.6402 5.4728C25.5568 5.43796 25.4847 5.3804 25.4324 5.30666L25.7608 5.16414C25.4435 5.16414 24.3603 5.17529 24.0926 5.16414C24.0137 5.16834 23.9359 5.14416 23.8732 5.09597C23.7357 4.94229 23.5622 4.94477 23.3775 4.93609C22.9933 4.91627 22.6091 4.88404 22.2236 4.86669C21.9584 4.8543 21.692 4.86669 21.4255 4.85306C21.3075 4.83774 21.191 4.81245 21.0772 4.77746L20.76 4.91503C20.7114 4.80973 20.638 4.71782 20.546 4.64722C20.454 4.57662 20.3463 4.52944 20.232 4.50975C19.9246 4.44779 19.9234 4.45274 19.7933 4.17389C19.7546 4.19636 19.7184 4.22295 19.6854 4.25321C19.59 4.36227 19.5032 4.38954 19.3905 4.26932C19.3217 4.19693 19.2343 4.14496 19.1378 4.11915C19.0413 4.09334 18.9396 4.0947 18.8439 4.12307C18.7013 4.1688 18.5467 4.15861 18.4114 4.09457C18.3272 4.07019 18.2385 4.06594 18.1523 4.08217L15.9611 4.17017C15.2706 4.221 14.5773 4.22348 13.8865 4.1776C13.8022 4.1776 13.7229 4.09209 13.6212 4.03384C13.5221 4.06969 13.4165 4.08405 13.3114 4.07598C12.8404 3.94089 12.3682 4.14662 11.8985 4.05491C11.7994 4.03632 11.6668 4.13794 11.5837 4.10324C11.3445 4.00038 11.1152 4.16273 10.8785 4.09333C10.767 4.0611 10.6306 4.13299 10.5067 4.13175C10.2811 4.13175 10.0568 4.10448 9.83126 4.08837C9.77301 4.08837 9.70732 4.05367 9.65774 4.07598C9.45633 4.15212 9.24524 4.19967 9.03063 4.21726C8.94139 4.23214 8.86579 4.33005 8.78275 4.39449C8.5448 4.21355 8.22132 4.05367 7.97717 4.27056C7.81605 4.14662 7.64254 4.16645 7.45044 4.22222C7.34137 4.25445 7.20876 4.19619 7.08731 4.19867C6.58288 4.20859 6.07846 4.22842 5.57404 4.23709C5.27783 4.23709 4.98039 4.22966 4.68418 4.23709C4.53746 4.23556 4.39118 4.25348 4.24916 4.29039L4.73623 4.33624C4.6867 4.35994 4.63476 4.37822 4.58131 4.39077C3.88851 4.42052 3.1957 4.43539 2.50414 4.48001C2.17075 4.50108 1.84232 4.59155 1.51265 4.62006C1.13093 4.65228 0.747962 4.64856 0.325339 4.66096C0.373209 4.55554 0.448952 4.4652 0.544398 4.39968C0.639843 4.33416 0.751368 4.29594 0.866941 4.28915C1.72458 4.18256 2.09267 4.1429 3.65179 4.09952C3.91868 4.08656 4.18613 4.09111 4.45242 4.11316C4.97171 4.16769 5.47489 4.04127 5.98551 4.00905L6.23338 3.99294C5.38566 3.88511 4.54289 3.96443 3.7026 3.95948V3.88759C3.76212 3.86931 3.82306 3.85605 3.88479 3.84793C4.13266 3.8343 4.38054 3.84793 4.62841 3.81447C5.1068 3.7587 5.59387 3.7996 6.06731 3.68186C6.16524 3.66638 6.26453 3.6614 6.36352 3.66699C6.42301 3.66699 6.48745 3.68806 6.54075 3.66699C6.95469 3.47365 7.39839 3.55544 7.82844 3.51826C8.64766 3.44886 9.46812 3.40052 10.2873 3.35095C10.643 3.32864 11 3.32244 11.3557 3.30757C11.4015 3.30757 11.4474 3.29642 11.5205 3.28774C11.3792 3.20718 11.2726 3.16381 11.1487 3.24808C11.1141 3.26766 11.0734 3.27342 11.0347 3.26419C10.4014 3.09812 9.773 3.24808 9.14713 3.30509C8.33834 3.36209 7.52581 3.33384 6.72293 3.22082C6.68961 3.21612 6.65758 3.20469 6.62882 3.18722C6.60005 3.16975 6.57515 3.1466 6.55562 3.11919C6.60746 3.09595 6.662 3.0793 6.71797 3.06961C7.20257 3.04607 7.68716 3.03119 8.17175 3.00641C8.44813 2.99277 8.72326 2.95683 8.99964 2.94444C9.58214 2.91717 10.1659 2.89734 10.7484 2.87627C10.7781 2.87627 10.8165 2.8676 10.8364 2.87627C11.1028 3.07829 11.4028 2.97666 11.6903 2.96799C12.5901 2.94072 13.4911 2.89734 14.3909 2.87379C18.3655 2.76969 18.7869 2.80563 20.7761 2.8205C20.834 2.82888 20.893 2.82481 20.9492 2.80857C21.0054 2.79232 21.0575 2.76428 21.102 2.72631C21.2148 2.62096 21.3747 2.67674 21.537 2.69285L21.449 2.83166L22.4715 2.84653C22.4591 2.80067 22.4591 2.75729 22.4443 2.75234C22.1912 2.64455 21.9209 2.58285 21.6461 2.57015C20.9843 2.57015 20.3237 2.54288 19.6631 2.54288C18.9517 2.54288 18.2403 2.56395 17.5289 2.57387C17.431 2.57387 17.3319 2.56519 17.234 2.56519C17.0865 2.55296 16.9382 2.55628 16.7915 2.57511C16.3755 2.66442 15.948 2.68701 15.5249 2.64203C15.3082 2.6351 15.0913 2.64214 14.8755 2.6631C14.7866 2.66988 14.6973 2.66739 14.609 2.65567C14.1133 2.56643 13.6175 2.63088 13.1292 2.61972C12.9036 2.61972 12.6781 2.56024 12.4537 2.57015C11.4623 2.60981 5.24065 2.86636 5.00394 2.88371C4.63832 2.9085 4.27519 2.95187 3.90958 2.98038C3.13002 3.04235 1.27469 3.18859 1.12597 3.19479C1.04884 3.19503 0.971792 3.18965 0.895446 3.17868L0.869419 3.10556L1.17182 2.9308L1.1396 2.8552L0.247259 2.9717C0.18653 2.84777 0.455472 2.77588 0.184052 2.64947C0.389786 2.5937 0.51868 2.54908 0.651291 2.52553C1.32674 2.4016 2.01459 2.4016 2.695 2.4016C2.85984 2.4016 3.02467 2.47596 3.19075 2.47844C3.75466 2.48711 4.32105 2.49579 4.88372 2.46852C5.22578 2.45241 5.56537 2.36813 5.90619 2.31732C6.1268 2.2851 6.15406 2.29005 8.60429 2.16984C12.4711 1.98517 13.3919 1.93931 14.2669 1.91453C15.1865 1.89098 16.1074 1.8885 17.027 1.86867C17.2129 1.86867 17.3988 1.81414 17.586 1.80794C18.1102 1.79059 18.6345 1.78563 19.1587 1.77448C19.2626 1.77596 19.3647 1.7471 19.4524 1.69144C19.416 1.67612 19.3776 1.6657 19.3384 1.66046C18.6357 1.66046 17.933 1.66046 17.2315 1.66046C13.3672 1.72119 13.1862 1.75961 9.21777 1.90833C8.20893 1.94675 7.20009 1.99137 6.19125 2.01492C5.05351 2.04094 3.62205 1.94179 2.51901 2.13142C1.95262 2.23676 1.37384 2.24916 0.800015 2.29625C0.731892 2.29517 0.663947 2.28896 0.596759 2.27766C0.632985 2.21602 0.683806 2.16422 0.74475 2.12684C0.805695 2.08945 0.874894 2.06761 0.94626 2.06325C1.3916 1.97402 1.83778 1.89139 2.28477 1.81538C2.38287 1.79952 2.48288 1.79952 2.58098 1.81538C3.1318 1.88328 3.68934 1.87536 4.23801 1.79183C4.25778 1.78967 4.27773 1.78967 4.2975 1.79183C4.73375 1.83521 5.16505 1.75465 5.59759 1.72862C5.91982 1.70879 6.2433 1.71747 6.56429 1.68524C6.76848 1.65269 6.97047 1.60757 7.1691 1.55015C7.29083 1.5151 7.41516 1.48982 7.54091 1.47455C7.93503 1.45101 8.33534 1.39523 8.7245 1.43737C9.2376 1.49314 9.72467 1.3531 10.2254 1.33822C10.5575 1.32831 10.8922 1.37293 11.2255 1.37293C11.5403 1.37293 11.8551 1.35434 12.1687 1.33327C12.4426 1.31591 12.7165 1.29361 12.9892 1.25643C13.7158 1.1611 14.4492 1.1267 15.1816 1.15356C15.8831 1.17711 16.5821 1.11514 17.2823 1.09159C17.7173 1.07672 18.1499 1.10027 18.5874 1.08291C18.8424 1.06156 19.096 1.02598 19.3471 0.976329C19.5479 0.945345 19.7449 0.859829 19.9358 1.03458C19.9785 1.0577 20.0259 1.07083 20.0744 1.07297C20.1229 1.07512 20.1713 1.06623 20.2159 1.04697C20.6422 0.85859 21.0946 0.892052 21.5346 0.901967C22.4343 0.920558 23.3341 0.97509 24.2339 1.0259C24.3802 1.04542 24.5245 1.07777 24.6652 1.12257C24.7104 1.14111 24.7579 1.15321 24.8065 1.15852C25.6108 1.10274 26.1115 0.992441 26.6445 1.21429C26.8725 1.30848 27.1489 1.29732 27.4054 1.30848C28.0982 1.33946 29.1281 1.34194 29.7776 1.38284C29.8698 1.3943 29.9607 1.41464 30.049 1.44357V1.51669L29.697 1.59229V1.62452H30.5906C30.555 1.67483 30.5073 1.71523 30.4517 1.74191C30.3962 1.76859 30.3348 1.78065 30.2733 1.77696C28.1937 1.88106 27.9185 1.86 27.3968 1.91453C27.4373 1.95304 27.4864 1.98134 27.5401 1.99707C27.5938 2.0128 27.6504 2.01552 27.7054 2.005C28.1899 2.005 29.8718 1.96782 30.2262 1.97154C30.3527 1.98674 30.4773 2.01499 30.598 2.05581L30.5162 2.21817L31.1359 2.2318C30.8744 2.45737 30.4691 2.37805 30.4245 2.78828L30.7492 2.80315C30.7356 3.02004 30.7083 3.07705 30.484 3.11051C30.0837 3.16876 29.6784 3.19975 29.2744 3.23445C29.1678 3.24436 29.0587 3.24065 28.9298 3.24436C29.3438 3.58519 29.2 3.44514 30.3427 3.39681C30.4619 3.39325 30.5803 3.41744 30.6885 3.46745C30.4357 3.64344 30.1023 3.54181 29.8135 3.72772ZM22.8793 2.88991L24.8238 3.01384C24.8052 2.937 24.7755 2.90726 24.7433 2.90354C24.4024 2.86512 24.0629 2.81554 23.722 2.80191C23.5002 2.79324 23.2821 2.81554 23.1519 2.60981L22.8793 2.88991ZM11.378 3.7178V3.67442C11.1623 3.66699 10.9467 3.64964 10.731 3.65459C10.4584 3.65459 10.1845 3.71036 9.91553 3.6893C9.72208 3.66824 9.52808 3.72386 9.37517 3.84422L11.378 3.7178ZM25.1039 2.91717C25.3059 3.06466 25.8054 3.08573 26.1908 2.95807L25.1039 2.91717ZM24.8201 3.41292C24.4731 3.30385 24.3566 3.29642 24.1211 3.36334C24.3465 3.43998 24.5882 3.45496 24.8214 3.40672L24.8201 3.41292ZM19.7524 1.67781V1.75217C20.0002 1.79927 20.2357 1.71623 20.4761 1.66789L19.7524 1.67781ZM21.6573 1.68524C21.9237 1.74721 21.9237 1.74721 22.0886 1.6617L21.6573 1.68524ZM12.1328 3.14274L12.1104 3.22701C12.1505 3.24318 12.192 3.25562 12.2344 3.26419C12.276 3.2649 12.3176 3.26074 12.3583 3.2518V3.19975L12.1328 3.14274ZM12.7599 3.58519L12.7673 3.65707L13.123 3.63848V3.60006L12.7599 3.58519ZM7.531 3.88511L7.54339 3.96196L7.90281 3.92601V3.87396L7.531 3.88511ZM27.2778 3.48232V3.43894L27.1018 3.42655V3.46993L27.2778 3.48232ZM27.2988 1.6555V1.63319L26.9977 1.60469V1.64806L27.2988 1.6555ZM28.7192 3.03739V3.0126L28.4118 2.98286V3.00765L28.7192 3.03739ZM25.3605 3.4092V3.42655L25.5774 3.44762V3.42655L25.3605 3.4092ZM11.8712 3.70045V3.67814L11.6965 3.66203V3.68434L11.8712 3.70045ZM20.9868 1.67905L20.9806 1.71003L21.1466 1.71871V1.69392L20.9868 1.67905ZM22.4108 1.69144V1.71003L22.5769 1.72614V1.71127L22.4108 1.69144ZM13.5444 3.59015V3.62609H13.6683V3.58767L13.5444 3.59015ZM26.1958 5.16166V5.18149L26.3197 5.19388V5.17405L26.1958 5.16166ZM8.20893 3.85289V3.90618L8.32543 3.88511L8.20893 3.85289Z" fill="#1A1A1A"/>
</g>
</g>
</mask>
<g mask="url(#mask0_1_68)">
<rect x="0.659973" y="0.699951" width="30" height="6" fill="#EAAA85"/>
</g>
<defs>
<clipPath id="clip0_1_68">
<rect width="30" height="6" fill="white" transform="translate(0.659973 0.699951)"/>
</clipPath>
<clipPath id="clip1_1_68">
<rect width="30.9519" height="6" fill="white" transform="translate(0.184052 0.699951)"/>
</clipPath>
</defs>
</svg>
