<svg width="87" height="87" viewBox="0 0 87 87" fill="none" xmlns="http://www.w3.org/2000/svg">
<path d="M63.1758 0.857836C60.878 0.900444 58.758 1.96169 57.3741 3.797C56.92 3.59447 56.4005 3.51855 55.9527 3.57453C54.4339 3.70109 52.9166 5.0933 51.7775 6.10582C50.8261 6.83764 50.0127 7.66161 49.2907 8.53823C48.5816 8.79288 47.8802 9.15937 47.3478 9.396C45.7024 10.282 44.1831 11.5481 43.0441 13.0669C42.982 13.2531 42.9827 13.4305 43.0218 13.5885C42.7749 13.395 42.4549 13.2829 42.0306 13.3215C40.0055 13.3215 38.1076 15.7242 36.8419 16.9899C34.7173 19.1145 32.4746 21.4894 30.9562 24.3514C30.8921 24.2187 30.8395 24.0805 30.7683 23.9509C30.6417 23.6978 30.26 23.5717 30.0069 23.8249C26.0377 26.9521 22.657 31.0035 20.5912 35.851C20.0811 35.8833 19.4703 36.1507 18.7446 36.7359C14.4415 40.5329 12.5415 47.8716 12.7946 53.6936C12.7946 53.7309 12.8173 53.7514 12.8317 53.7777C11.3256 54.1143 10.0172 54.9326 9.63051 56.4795C8.49143 60.403 10.2643 65.5922 11.9097 69.136C13.6816 73.0595 16.3394 76.4757 20.7692 76.982C20.9118 76.982 21.0036 76.9157 21.0658 76.8263C21.2881 78.9299 23.4135 80.533 25.4511 80.6529C27.9824 80.906 29.3756 82.8035 31.5272 83.4363C32.0721 83.592 32.6044 83.7115 33.1364 83.8046C33.1936 83.9159 33.2842 84.0125 33.4256 84.0691C34.0256 84.3262 34.5944 84.2795 35.1412 84.084C36.2869 84.7412 37.4734 85.0325 38.6712 85.0579C38.7066 85.2321 38.8078 85.3884 38.995 85.4633C43.4247 88.2477 48.4854 86.3493 52.7886 84.1977C56.5753 82.2432 60.8241 79.8092 61.5714 75.091C64.7023 73.1109 67.7575 67.9653 67.5487 63.5444C68.7275 61.5463 69.7096 59.2402 70.3815 57.1124C70.7957 55.9734 71.031 54.8327 70.6905 53.6244C70.7216 53.5761 70.747 53.5176 70.7622 53.4415C71.4629 50.8388 71.8402 48.3133 72.0328 45.7438C72.1007 45.9279 72.4061 46.0487 72.4061 45.8476C74.7231 41.0028 76.8511 35.7198 75.3897 30.5091C75.4106 30.4782 75.4333 30.451 75.4441 30.4077C77.2745 26.0149 77.6684 20.8037 75.7679 16.2384C75.9258 16.2436 76.0769 16.1295 76.0769 15.8528C75.9562 14.0421 76.0603 9.1314 73.8744 8.02159C73.3431 5.96354 72.3438 3.11847 70.8883 2.18281C69.0565 1.03795 66.9156 1.14174 64.9308 1.73291C64.933 1.71631 64.9387 1.69245 64.9407 1.67606C65.0673 1.29636 64.6876 1.04373 64.3079 0.917163C63.9282 0.869701 63.549 0.850914 63.1758 0.857836ZM62.7802 1.89853C63.0756 1.88766 63.3745 1.89903 63.6751 1.93067C63.422 2.81662 63.2934 3.70158 62.9137 4.7141C62.5448 5.5748 61.5867 6.55613 61.5319 7.65574C61.2482 7.27458 60.9157 6.92094 60.511 6.61257C59.8669 6.0973 59.1959 5.82239 58.5186 5.71525C58.5207 5.5534 58.5119 5.38811 58.484 5.22085C58.4421 4.80253 58.2559 4.47421 57.997 4.21724C59.2817 2.81735 60.9691 1.96522 62.7802 1.89853ZM67.8972 2.48439C69.0521 2.53185 70.1289 2.87941 70.8883 3.95521C71.7471 5.07163 72.0871 6.4756 72.5297 7.81889C71.2121 7.97977 70.1457 9.11339 69.2864 10.2266C69.5369 8.1086 69.3138 5.58406 66.9653 5.09478C65.9869 4.88882 64.9094 5.17558 63.9346 5.72019C64.3392 4.75719 64.5874 3.72055 64.7553 2.77114C65.7547 2.63833 66.8513 2.44141 67.8972 2.48439ZM55.3198 4.7141C56.0792 4.96723 56.714 5.21987 57.3469 5.47299C57.3469 5.5478 57.3187 5.62314 57.2999 5.69794C55.3127 5.94962 53.3787 7.43682 51.9506 8.84228C51.8185 8.72537 51.6777 8.61425 51.5229 8.51104C51.2533 8.33127 50.9404 8.26441 50.6058 8.26384C51.1102 7.78048 51.6212 7.30209 52.1557 6.86471C52.9151 6.23189 53.6755 5.72711 54.4349 5.22085C54.688 5.09429 55.0667 4.84067 55.3198 4.7141ZM66.8293 6.32582C68.7376 6.51101 67.7982 9.75615 68.0159 11.4378C65.9639 11.7982 64.2216 14.1674 62.9829 15.8132C62.9167 15.7852 62.8555 15.75 62.7877 15.7242C62.6361 15.6548 62.4807 15.5994 62.3254 15.5438C62.3635 15.4888 62.394 15.4232 62.4094 15.346C62.8463 13.3367 63.0164 10.9157 62.2216 8.93622C63.2019 7.92978 64.1622 6.99899 65.6996 6.4865C66.1584 6.34412 66.5287 6.29665 66.8293 6.32582ZM58.0761 6.88449C59.0463 6.93825 59.9721 7.4036 60.7631 8.51104C60.8775 8.68267 60.9628 8.8675 61.0499 9.0524C61.0418 9.08278 61.0224 9.11357 61.0153 9.14386C60.931 9.4809 61.1265 9.68927 61.3045 9.72725C61.8284 11.4813 61.4976 13.593 61.3959 15.22C61.3903 15.2485 61.3972 15.2701 61.3959 15.2966C58.8313 14.8341 56.1879 16.1331 56.0812 19.0021C55.6091 18.2798 55.028 17.6715 54.3088 17.2445C54.0642 17.1141 53.829 17.0037 53.5994 16.9108C53.6745 15.259 53.4035 13.532 53.2953 11.8012C53.218 10.9511 52.9743 10.2115 52.5562 9.57893C53.9001 8.43206 55.6409 7.16059 57.3395 6.92404L57.342 6.92651C57.4171 6.96804 57.5041 6.99325 57.5991 6.99325C57.6952 6.9658 57.7773 6.92816 57.8561 6.88943C57.9292 6.88895 58.0035 6.88047 58.0761 6.88449ZM72.8832 8.79284C73.0048 9.08684 73.1369 9.37662 73.2935 9.65062C73.4933 9.91704 73.7561 9.92986 73.9486 9.81624C74.7982 11.4435 75.1233 14.3875 75.3675 15.5537C75.1989 15.4793 74.9796 15.4721 74.8113 15.4721C74.0866 15.8015 73.5052 16.2396 73.0191 16.7748C72.8432 14.8323 71.9586 13.0344 70.2555 11.9273C69.8684 11.6796 69.4877 11.5274 69.1134 11.4502C70.1957 10.9148 71.0684 9.6574 72.0279 9.01779C72.3433 8.81275 72.6269 8.74792 72.8832 8.79284ZM50.1757 9.6432C52.2973 9.49724 52.3721 14.255 52.6081 16.629C51.4785 16.4298 50.4487 16.7236 49.2462 17.4966C46.9425 18.9227 44.7546 21.655 42.8883 24.0127C42.6699 23.7407 42.4228 23.5225 42.1393 23.3873C42.9616 20.9925 43.1336 18.0188 43.5508 15.7242C43.6733 15.173 43.6417 14.5667 43.4248 14.0977C43.5997 14.1917 43.7875 14.222 43.929 14.0804C45.1296 12.6951 46.4038 11.5195 47.8866 10.6369C47.9962 10.6494 48.131 10.6373 48.2327 10.5356C48.3103 10.4658 48.3899 10.3822 48.4676 10.3106C48.8407 10.1159 49.2218 9.93327 49.6244 9.77669C49.8222 9.69759 50.0055 9.65491 50.1757 9.6432ZM68.7822 12.8419C69.0954 12.8545 69.4165 12.9245 69.7487 13.0669C71.8681 14.0708 71.7353 16.6178 71.7584 18.6881C71.0912 19.0308 70.4824 19.4816 70.1294 19.7758C69.1218 20.5315 68.1761 21.4597 67.5017 22.6235C66.9967 20.1107 65.8992 17.6173 63.8877 16.2977C65.2899 14.8761 66.8643 12.7647 68.7822 12.8419ZM42.1196 14.4091C42.4201 14.4507 42.6006 14.7132 42.5373 15.346C42.4108 16.6117 42.0316 17.8778 41.7784 19.0169C41.5938 20.4012 41.1462 21.7855 41.0121 23.1698C39.4453 23.2241 38.118 24.6778 36.968 25.7233C35.0582 27.3944 32.6076 29.8542 31.8016 32.3581C31.6824 32.3154 31.5633 32.2756 31.4431 32.2468C32.1115 29.6683 32.1149 26.7953 30.9784 24.4008C31.0635 24.3941 31.1911 24.4131 31.2726 24.3316C34.057 21.5472 36.5903 18.5106 39.6278 15.8528C39.2481 16.1375 41.2178 14.2846 42.1196 14.4091ZM60.0314 16.3842C61.2963 16.3438 62.6937 16.8806 63.8012 17.8773C65.623 19.4848 66.0799 21.9922 66.4857 24.4157C64.4433 26.4849 62.6671 30.9614 62.1771 32.1999C62.013 31.9686 61.8364 31.7488 61.6481 31.5448C60.465 30.2434 58.8404 29.4051 57.1862 30.0221C57.9303 27.191 58.0116 22.8769 56.5781 19.8821C56.6802 19.8476 56.7583 19.7826 56.714 19.6497C56.9988 17.4427 58.4051 16.4363 60.0314 16.3842ZM74.5443 16.8613C74.7796 16.8969 75.0021 17.1164 75.192 17.6227C75.6982 18.8883 75.8243 20.4081 75.9509 21.8003C76.0301 23.544 75.835 25.3273 75.4491 27.0458C75.476 25.6896 75.4441 24.3165 75.4441 22.9399C75.3176 21.2946 75.5712 19.27 74.0524 18.3841C73.7382 18.2269 73.3843 18.1957 73.0191 18.2456C73.0203 18.2332 73.0205 18.2209 73.0217 18.2086C73.4788 17.549 74.0381 16.7848 74.5443 16.8613ZM52.4252 17.6153C52.5473 17.624 52.6609 17.6541 52.7762 17.682C52.7815 17.6986 52.783 17.7361 52.7886 17.7512C52.8843 18.0382 53.2688 18.1058 53.4511 17.9589C55.0495 18.9397 55.8631 21.7693 56.2073 23.3181C56.8358 25.8319 56.3389 28.2219 55.9601 30.734C53.4155 32.4975 51.1653 34.9555 49.1202 37.1141C49.0943 37.1918 49.1064 37.2576 49.0955 37.3317C48.6859 36.733 48.2293 36.243 47.726 35.9746C46.9749 35.599 46.3292 35.5911 45.7435 35.7719C45.5713 33.3976 45.1414 31.0794 44.5619 28.7614C44.3276 27.824 44.043 26.2128 43.4742 24.9669C45.9181 22.6609 47.8566 19.8678 50.638 18.1295C51.3025 17.726 51.8964 17.5774 52.4252 17.6153ZM73.3602 19.6299C73.7755 19.6477 74.0835 19.9019 74.1785 20.5347C74.4704 23.065 74.392 25.5216 74.396 28.0173C74.2831 27.8012 74.18 27.5852 74.0524 27.3697C73.7993 26.99 73.166 26.8634 72.9128 27.3697C72.4723 28.1705 72.05 29.024 71.6496 29.901C71.5027 27.6913 70.9337 25.6003 69.6226 24.0795C69.25 23.6603 68.8629 23.4541 68.4682 23.4145C68.8531 22.8967 69.223 22.3926 69.6226 21.9264C69.8293 21.7197 71.0444 20.5973 72.1737 20.0057C72.3714 20.0538 72.5903 19.9825 72.7299 19.7461C72.9551 19.6691 73.1697 19.6218 73.3602 19.6299ZM40.5548 24.6851C42.3025 24.8651 43.2033 30.3761 43.4248 31.0405C43.8269 32.9507 43.9962 34.782 44.2998 36.6593C43.7526 37.1764 43.2644 37.8129 42.7919 38.3798C40.9414 40.5387 39.4312 42.8718 38.3844 45.5683C38.1146 41.032 36.2478 36.3548 33.2996 33.3172C32.9211 32.9493 32.5301 32.6856 32.1328 32.4965C33.149 31.542 33.9581 30.3796 34.9434 29.3942C36.4622 27.7489 37.982 26.3566 39.7539 24.9644C40.0387 24.743 40.3051 24.6594 40.5548 24.6851ZM29.8809 25.0905C30.876 27.454 30.409 29.5797 30.3926 32.1752C27.4038 32.3726 24.3525 36.085 22.6306 38.9953C22.5425 37.5693 22.1065 36.2953 21.1993 35.9499C23.5077 31.73 26.1867 28.0697 29.8809 25.0905ZM67.9887 25.8395C68.8946 25.931 69.8451 26.7517 70.0033 27.6218C70.8471 31.1173 70.2979 34.4978 69.3705 37.873C67.0022 40.0261 64.2765 42.4592 62.5775 45.3952C62.3175 45.2543 62.0554 45.1506 61.7915 45.0689C64.1326 42.386 64.5726 36.9274 62.8223 33.3172C62.8564 33.2829 62.8869 33.2447 62.9137 33.1911C63.9262 31.6724 64.8142 30.1546 65.5736 28.5092C65.9533 27.8764 66.2049 27.2436 66.5846 26.6108C66.7062 26.3849 66.8569 26.2224 67.0221 26.0991C67.2583 26.187 67.5597 26.0974 67.7316 25.8593C67.8177 25.8538 67.901 25.8307 67.9887 25.8395ZM73.5456 29.0135C75.9437 34.4406 73.9365 40.3721 72.0427 45.551C72.0865 44.9351 72.13 44.3202 72.1539 43.697C72.1539 41.7211 72.238 39.3323 70.5892 38.0708C70.9513 36.9 71.261 35.5585 71.4642 34.133C72.1819 32.451 72.8346 30.7022 73.5456 29.0135ZM58.3579 31.4163C58.9353 31.3708 59.5291 31.5453 60.1303 32.0516C63.9272 35.0891 62.2824 41.1637 61.2699 44.8341C61.257 44.8728 61.2732 44.9024 61.2724 44.9379C57.2167 44.2435 52.9426 49.7613 51.0928 52.9792C50.9925 52.6865 50.8904 52.3962 50.7789 52.1116C50.9433 52.037 51.0808 51.8928 51.1448 51.6691C51.9041 48.7581 51.9037 45.8466 51.2708 42.9356C51.0377 41.7701 50.4669 39.7984 49.6245 38.2117C49.6676 38.1932 49.7118 38.1689 49.753 38.1276C51.2718 37.1151 52.5365 35.9746 53.8021 34.7089C55.0361 33.6648 56.6255 31.5527 58.3579 31.4163ZM30.4321 33.9945C31.9246 33.9667 33.4331 34.8671 34.8174 37.2402C37.3487 41.5434 37.3482 46.1007 36.8419 50.9102C36.8419 51.1101 36.9747 51.2274 37.1336 51.2933C35.0298 53.0281 33.1743 55.1023 31.5939 57.3595C31.2107 57.206 30.8228 57.1006 30.4346 57.0234C30.7708 53.6173 29.853 50.261 28.148 47.3506C28.3242 46.9496 28.4421 46.4931 28.6152 45.9737C28.8683 44.9612 29.2495 44.0767 29.5026 43.0642C29.6292 42.811 29.122 42.5564 29.122 42.8096C28.7423 43.5689 28.2355 44.3288 27.9824 45.2148C27.8628 45.6335 27.6904 46.0223 27.5646 46.4112C26.2345 44.4158 24.5273 42.6746 22.6207 41.319C24.3434 38.0854 27.3395 34.0522 30.4321 33.9945ZM46.5592 37.3267C46.9619 37.3119 47.3151 37.4775 47.5999 37.873C50.1749 41.3845 50.7844 46.1875 49.9631 50.2947C49.3028 48.9997 48.5415 47.8553 47.726 46.9872C45.7009 44.8356 41.2727 48.3799 39.7539 49.3924C39.1322 49.7839 38.5318 50.211 37.9444 50.658C38.2556 49.4267 38.409 48.1248 38.4165 46.7944C39.4983 44.8428 42.2759 40.35 44.636 38.3328C44.9011 38.8218 45.7146 38.5661 45.8275 38.0016C45.8275 37.847 45.8126 37.6958 45.8102 37.5418C46.0724 37.421 46.3257 37.3353 46.5592 37.3267ZM19.9139 37.5665C20.8423 37.4233 21.2548 39.2673 21.3748 40.7628C19.527 40.5457 17.6561 42.7977 16.5916 44.0752C14.5439 46.7695 13.7897 50.2892 13.8427 53.6195C13.6555 53.6355 13.4738 53.6769 13.289 53.706C13.2921 53.7005 13.2986 53.6993 13.3014 53.6936C13.5545 49.8966 14.4405 46.3528 15.8327 42.9356C16.5921 41.1637 17.6051 39.772 18.8707 38.3797C19.2742 37.8577 19.6195 37.6119 19.9139 37.5665ZM69.4966 39.3933C70.5091 40.2793 70.8888 41.2918 70.7622 42.5574C70.8888 43.6965 70.8888 44.7085 70.7622 45.8476C70.6522 48.0474 70.3419 50.1484 70.0157 52.2401C68.7519 50.7017 66.5 51.9266 65.3387 53.4365C65.7973 50.6268 65.4174 47.7651 63.5441 46.0824C65.4775 43.8496 67.2702 41.4076 69.4966 39.3933ZM20.7198 42.4215C20.9771 42.3884 21.231 42.4179 21.4861 42.4734C21.5925 42.5842 21.7642 42.6439 21.9285 42.597C22.5608 42.8459 23.2101 43.3224 23.9333 43.9491C27.6628 47.329 28.9111 52.1032 29.1862 56.8899C27.1269 56.8849 25.1326 57.8484 23.654 59.4088C22.8796 58.0273 21.8984 56.8787 20.7198 55.9505C20.7783 55.9336 20.8367 55.9052 20.8953 55.8467C21.0218 54.8342 20.6411 53.6951 20.5146 52.6826C20.388 51.4169 20.2619 50.2769 20.3885 49.1378C20.5151 48.7581 19.7557 48.632 19.7557 49.0117C19.5026 50.2774 19.503 51.4169 19.6296 52.6826C19.7434 53.7065 19.8774 54.8179 20.3588 55.6786C19.3869 54.9716 18.3006 54.3935 17.0983 53.9482C16.3998 53.7276 15.5391 53.6084 14.6535 53.6022C14.963 51.1157 15.3604 48.6115 16.5916 46.3544C17.0978 45.3418 17.8587 44.3278 18.7447 43.5684C19.4566 42.8565 20.0968 42.5015 20.7198 42.4215ZM61.0128 46.0775C61.4037 46.1046 61.7405 46.2393 62.0362 46.4483C61.9514 46.6286 61.8528 46.803 61.7766 46.9872C61.5235 47.2403 62.0297 47.7451 62.4094 47.3654C62.4937 47.2767 62.5708 47.1784 62.6542 47.0885C63.9065 48.8351 63.968 52.3586 63.8012 53.6936C63.5934 55.4591 62.7878 57.1191 62.0164 58.7142C61.5217 58.7895 61.045 58.8943 60.637 59.0108C57.0932 59.8968 53.9291 63.1865 51.1447 65.5912C50.931 65.8048 50.9201 66.0085 50.9815 66.1746C50.7856 65.8648 50.5676 65.5801 50.3364 65.3119C50.4722 65.1441 50.5975 64.9699 50.717 64.7903C51.6483 63.7728 52.437 62.5605 53.2953 61.416C54.4344 59.8973 55.573 58.5031 56.5855 56.8577C56.7121 56.478 56.3343 56.0998 56.0812 56.4795C54.9421 57.8717 53.6755 59.1359 52.5364 60.6547C52.3749 60.8521 52.1988 61.0618 52.0297 61.2603C52.407 58.898 52.0994 56.2236 51.3474 53.7356C53.8503 51.0899 56.2413 47.7323 59.6235 46.3544C60.1456 46.1329 60.6066 46.0493 61.0128 46.0775ZM45.9363 48.4827C46.5987 48.545 47.1727 48.8229 47.5999 49.3924C49.2452 51.6706 50.1322 54.454 50.5119 57.2384C50.7294 59.8491 49.8273 61.9933 49.3278 64.3923C48.6296 63.9046 47.8128 63.5952 46.841 63.5666C43.5503 63.5666 39.1216 68.1225 38.3622 71.2866C38.2356 71.6663 38.8679 72.0475 39.1211 71.5412C40.6398 68.7568 43.0441 67.2365 45.5754 65.5912C50.3848 62.8068 51.9026 72.047 51.5229 74.8314C51.0166 77.9955 47.2217 80.2737 44.6904 81.7924C42.2597 83.2104 39.7443 83.7204 37.0866 83.2905C37.112 83.1408 37.0841 83.004 36.9655 82.9469C37.3559 82.6322 37.7375 82.3137 38.1076 82.0446C40.2592 80.2727 42.0306 78.3752 43.929 76.097C44.0556 75.7173 43.6774 75.4632 43.5508 75.7164L39.6278 79.6394C38.7794 80.4878 37.0189 82.3169 35.3909 82.8826C35.3694 82.8811 35.3504 82.8768 35.3291 82.8751C35.2422 82.848 35.1567 82.8325 35.0695 82.8034C34.9245 82.7454 34.8042 82.7603 34.7037 82.8109C32.5223 82.5417 30.9876 81.7846 28.6152 80.4007C28.3832 80.2682 28.1511 80.1692 27.9181 80.067C33.8152 79.2986 37.4762 73.5651 37.5538 67.8135C37.5684 67.7886 37.5889 67.7741 37.6008 67.7443C39.7524 64.327 41.1466 60.277 42.1591 56.3535C42.2857 55.9738 41.7789 55.8452 41.6524 56.2249C40.5449 59.658 39.129 62.7991 37.4401 65.9051C37.0924 63.2378 35.9468 60.6813 33.8039 58.7562C33.4087 58.4006 33.0009 58.1132 32.5852 57.8638C34.0108 56.2276 35.4562 54.6109 37.0965 53.1893C38.5362 51.9553 43.0658 48.2128 45.9363 48.4827ZM67.7563 53.1671C68.3582 53.1448 68.9898 53.6788 69.6226 54.7071C69.6226 55.4665 69.3685 56.2254 69.242 56.7317C68.7158 58.3979 67.8979 60.0685 67.2693 61.7769C67.1089 61.2087 66.8933 60.6604 66.5846 60.1504C65.8939 59.0453 64.7128 58.6682 63.4946 58.6252C64.0905 57.6189 64.6049 56.4216 64.9655 55.1471C65.0886 55.1873 65.2203 55.1865 65.3189 55.0878C65.8252 54.7081 66.331 54.3284 66.7107 53.8222C67.0429 53.395 67.3951 53.1804 67.7563 53.1671ZM13.9589 55.4784C13.9737 55.4774 13.9887 55.4792 14.0034 55.4784C14.1069 55.5875 14.2938 55.6073 14.3841 55.4809C15.2237 55.4784 16.0682 55.5989 16.7176 55.7207C19.3389 56.2905 21.3366 58.5019 22.5416 60.8772C20.4003 64.5088 20.5641 71.9898 23.0459 75.4643C23.1724 75.7174 23.5526 75.4633 23.5526 75.0836C22.4135 71.5398 22.287 67.4912 22.9198 63.9474C23.0639 63.2558 23.2898 62.6395 23.565 62.0835C24.1007 62.0959 24.694 61.6279 24.4401 61.0354C24.4154 60.9725 24.3839 60.917 24.3585 60.855C26.8868 57.7746 31.729 58.0375 34.4367 62.0489C39.2461 69.01 33.171 76.9835 26.8428 79.1351C26.6208 79.1907 26.5387 79.3706 26.5388 79.5628C24.5949 78.9938 22.777 78.7496 21.6542 76.2232C21.5439 75.8925 21.1643 75.9633 21.0634 76.3171C21.0007 76.2156 20.9084 76.1319 20.7692 76.0971C15.2003 73.6924 13.1738 68.5032 11.6551 62.8078C11.2754 61.4156 11.1488 60.1485 11.0222 58.7563C10.864 56.3041 12.3373 55.5822 13.9589 55.4784ZM62.9483 60.1949C63.231 60.2017 63.5164 60.229 63.8012 60.2765C67.345 60.9093 65.445 66.8573 64.8122 68.6292C64.0106 70.805 62.5843 72.3551 61.1018 73.85C59.4106 72.8484 57.7246 72.7981 56.148 73.326C56.2883 73.1966 56.4532 73.0486 56.5855 72.9329C57.8511 71.6673 58.8656 70.2746 59.8782 68.6292C60.0047 68.3761 59.624 68.25 59.4975 68.5032C58.485 69.6422 57.3464 70.7803 56.2073 71.9194C55.2351 72.8916 53.8972 73.4979 53.0531 74.4408C53.1241 73.8727 53.1299 73.2855 53.0432 72.6783C52.7654 70.7339 52.2162 68.2237 51.0706 66.3278C51.1902 66.4546 51.3612 66.5325 51.5229 66.4786C54.3999 64.5606 57.9077 60.9505 61.6629 60.3061L61.6655 60.3086C61.8395 60.4352 62.0911 60.4664 62.281 60.2765C62.2968 60.26 62.3122 60.2389 62.3279 60.2221C62.5347 60.207 62.7403 60.1898 62.9483 60.1949ZM13.9342 62.4122C13.8709 62.4281 13.8081 62.4899 13.8081 62.5531C14.441 64.4516 15.0733 66.6047 15.8327 68.5032C16.5921 70.2751 17.3519 72.5517 18.8707 73.944C18.9973 74.1971 19.3755 73.9449 19.2489 73.6918C18.7427 71.9199 17.477 70.4006 16.7176 68.7553C15.7051 66.7303 14.8197 64.7047 14.0603 62.5531C14.0603 62.4266 13.9975 62.3964 13.9342 62.4122ZM29.4532 68.3993C29.4077 68.4073 29.3741 68.4399 29.3741 68.5032C28.6147 70.2751 27.7297 71.7924 26.5907 73.3111C25.5781 74.5768 24.1869 75.5903 23.1744 76.8559C22.7947 77.1091 23.0469 77.4893 23.4266 77.3627C26.4641 75.9705 28.6157 71.9194 29.7548 68.7553C29.8497 68.5655 29.5897 68.3756 29.4532 68.3993ZM59.013 74.3222C61.8954 74.5335 59.0698 77.9164 58.3579 78.6283C57.4719 79.7674 56.2068 80.4002 55.0677 81.1596C50.615 83.8997 46.2641 86.0097 41.2741 84.7267C43.0612 84.2834 44.8239 83.4542 46.4603 82.5513C48.6253 81.2191 51.0566 79.2803 52.2917 76.851C52.3319 76.851 52.3693 76.8696 52.4103 76.8559C54.3088 75.7168 55.9532 74.4512 58.3579 74.3246C58.6031 74.3088 58.8208 74.3081 59.013 74.3222Z" fill="#C2975D"/>
</svg>
